<?xml version="1.0" encoding="UTF-8"?><svg xmlns="http://www.w3.org/2000/svg" xmlns:xlink="http://www.w3.org/1999/xlink" fill-opacity="1" color-rendering="auto" color-interpolation="auto" text-rendering="auto" stroke="black" stroke-linecap="square" width="1101" stroke-miterlimit="10" shape-rendering="auto" stroke-opacity="1" fill="black" stroke-dasharray="none" font-weight="normal" stroke-width="1" height="464" font-family="'Dialog'" font-style="normal" stroke-linejoin="miter" font-size="12px" stroke-dashoffset="0" image-rendering="auto">
  <!--Generated by ySVG 2.5-->
  <defs id="genericDefs"/>
  <g>
    <defs id="defs1">
      <clipPath clipPathUnits="userSpaceOnUse" id="clipPath1">
        <path d="M0 0 L1101 0 L1101 464 L0 464 L0 0 Z"/>
      </clipPath>
      <clipPath clipPathUnits="userSpaceOnUse" id="clipPath2">
        <path d="M96 92 L1197 92 L1197 556 L96 556 L96 92 Z"/>
      </clipPath>
    </defs>
    <g fill="white" text-rendering="geometricPrecision" shape-rendering="geometricPrecision" transform="translate(-96,-92)" stroke="white">
      <rect x="96" width="1101" height="464" y="92" clip-path="url(#clipPath2)" stroke="none"/>
    </g>
    <g fill="rgb(255,255,153)" text-rendering="geometricPrecision" shape-rendering="geometricPrecision" transform="matrix(1,0,0,1,-96,-92)" stroke="rgb(255,255,153)">
      <rect x="391.4" width="129" height="49" y="228" clip-path="url(#clipPath2)" stroke="none"/>
    </g>
    <g text-rendering="geometricPrecision" stroke-miterlimit="1.45" shape-rendering="geometricPrecision" transform="matrix(1,0,0,1,-96,-92)" stroke-linecap="butt">
      <rect fill="none" x="391.4" width="129" height="49" y="228" clip-path="url(#clipPath2)"/>
      <text x="444.7496" xml:space="preserve" y="256.6543" clip-path="url(#clipPath2)" font-family="sans-serif" stroke="none">Tab</text>
    </g>
    <g fill="rgb(255,255,153)" text-rendering="geometricPrecision" shape-rendering="geometricPrecision" transform="matrix(1,0,0,1,-96,-92)" stroke="rgb(255,255,153)">
      <rect x="610" width="129" height="49" y="107" clip-path="url(#clipPath2)" stroke="none"/>
    </g>
    <g text-rendering="geometricPrecision" stroke-miterlimit="1.45" shape-rendering="geometricPrecision" transform="matrix(1,0,0,1,-96,-92)" stroke-linecap="butt">
      <rect fill="none" x="610" width="129" height="49" y="107" clip-path="url(#clipPath2)"/>
      <text x="628.3809" xml:space="preserve" y="135.6543" clip-path="url(#clipPath2)" font-family="sans-serif" stroke="none">MenuController</text>
    </g>
    <g fill="rgb(255,255,153)" text-rendering="geometricPrecision" shape-rendering="geometricPrecision" transform="matrix(1,0,0,1,-96,-92)" stroke="rgb(255,255,153)">
      <rect x="111" width="129" height="49" y="376" clip-path="url(#clipPath2)" stroke="none"/>
    </g>
    <g text-rendering="geometricPrecision" stroke-miterlimit="1.45" shape-rendering="geometricPrecision" transform="matrix(1,0,0,1,-96,-92)" stroke-linecap="butt">
      <rect fill="none" x="111" width="129" height="49" y="376" clip-path="url(#clipPath2)"/>
      <text x="149.7744" xml:space="preserve" y="404.6543" clip-path="url(#clipPath2)" font-family="sans-serif" stroke="none">Actuator</text>
    </g>
    <g fill="rgb(255,255,153)" text-rendering="geometricPrecision" shape-rendering="geometricPrecision" transform="matrix(1,0,0,1,-96,-92)" stroke="rgb(255,255,153)">
      <rect x="299.4" width="129" height="49" y="376" clip-path="url(#clipPath2)" stroke="none"/>
    </g>
    <g text-rendering="geometricPrecision" stroke-miterlimit="1.45" shape-rendering="geometricPrecision" transform="matrix(1,0,0,1,-96,-92)" stroke-linecap="butt">
      <rect fill="none" x="299.4" width="129" height="49" y="376" clip-path="url(#clipPath2)"/>
      <text x="330.9322" xml:space="preserve" y="404.6543" clip-path="url(#clipPath2)" font-family="sans-serif" stroke="none">Acquisition</text>
    </g>
    <g fill="rgb(255,255,153)" text-rendering="geometricPrecision" shape-rendering="geometricPrecision" transform="matrix(1,0,0,1,-96,-92)" stroke="rgb(255,255,153)">
      <rect x="487.8" width="129" height="49" y="376" clip-path="url(#clipPath2)" stroke="none"/>
    </g>
    <g text-rendering="geometricPrecision" stroke-miterlimit="1.45" shape-rendering="geometricPrecision" transform="matrix(1,0,0,1,-96,-92)" stroke-linecap="butt">
      <rect fill="none" x="487.8" width="129" height="49" y="376" clip-path="url(#clipPath2)"/>
      <text x="490.5539" xml:space="preserve" y="404.6543" clip-path="url(#clipPath2)" font-family="sans-serif" stroke="none">StreamBarController</text>
    </g>
    <g fill="rgb(255,255,153)" text-rendering="geometricPrecision" shape-rendering="geometricPrecision" transform="matrix(1,0,0,1,-96,-92)" stroke="rgb(255,255,153)">
      <rect x="676.2" width="129" height="49" y="376" clip-path="url(#clipPath2)" stroke="none"/>
    </g>
    <g text-rendering="geometricPrecision" stroke-miterlimit="1.45" shape-rendering="geometricPrecision" transform="matrix(1,0,0,1,-96,-92)" stroke-linecap="butt">
      <rect fill="none" x="676.2" width="129" height="49" y="376" clip-path="url(#clipPath2)"/>
      <text x="718.074" xml:space="preserve" y="404.6543" clip-path="url(#clipPath2)" font-family="sans-serif" stroke="none">Toolbar</text>
    </g>
    <g fill="rgb(255,255,153)" text-rendering="geometricPrecision" shape-rendering="geometricPrecision" transform="matrix(1,0,0,1,-96,-92)" stroke="rgb(255,255,153)">
      <rect x="1053" width="129" height="49" y="376" clip-path="url(#clipPath2)" stroke="none"/>
    </g>
    <g text-rendering="geometricPrecision" stroke-miterlimit="1.45" shape-rendering="geometricPrecision" transform="matrix(1,0,0,1,-96,-92)" stroke-linecap="butt">
      <rect fill="none" x="1053" width="129" height="49" y="376" clip-path="url(#clipPath2)"/>
      <text x="1091.0215" xml:space="preserve" y="404.6543" clip-path="url(#clipPath2)" font-family="sans-serif" stroke="none">ViewPort</text>
    </g>
    <g fill="rgb(255,255,153)" text-rendering="geometricPrecision" shape-rendering="geometricPrecision" transform="matrix(1,0,0,1,-96,-92)" stroke="rgb(255,255,153)">
      <rect x="487.8" width="129" height="49" y="492" clip-path="url(#clipPath2)" stroke="none"/>
    </g>
    <g text-rendering="geometricPrecision" stroke-miterlimit="1.45" shape-rendering="geometricPrecision" transform="matrix(1,0,0,1,-96,-92)" stroke-linecap="butt">
      <rect fill="none" x="487.8" width="129" height="49" y="492" clip-path="url(#clipPath2)"/>
      <text x="500.8137" xml:space="preserve" y="520.6543" clip-path="url(#clipPath2)" font-family="sans-serif" stroke="none">StreamController</text>
    </g>
    <g fill="rgb(255,255,153)" text-rendering="geometricPrecision" shape-rendering="geometricPrecision" transform="matrix(1,0,0,1,-96,-92)" stroke="rgb(255,255,153)">
      <rect x="391.4" width="129" height="49" y="107" clip-path="url(#clipPath2)" stroke="none"/>
    </g>
    <g text-rendering="geometricPrecision" stroke-miterlimit="1.45" shape-rendering="geometricPrecision" transform="matrix(1,0,0,1,-96,-92)" stroke-linecap="butt">
      <rect fill="none" x="391.4" width="129" height="49" y="107" clip-path="url(#clipPath2)"/>
      <text x="404.8443" xml:space="preserve" y="135.6543" clip-path="url(#clipPath2)" font-family="sans-serif" stroke="none">TabBarController</text>
    </g>
    <g fill="rgb(255,255,153)" text-rendering="geometricPrecision" shape-rendering="geometricPrecision" transform="matrix(1,0,0,1,-96,-92)" stroke="rgb(255,255,153)">
      <rect x="828.6" width="129" height="49" y="107" clip-path="url(#clipPath2)" stroke="none"/>
    </g>
    <g text-rendering="geometricPrecision" stroke-miterlimit="1.45" shape-rendering="geometricPrecision" transform="matrix(1,0,0,1,-96,-92)" stroke-linecap="butt">
      <rect fill="none" x="828.6" width="129" height="49" y="107" clip-path="url(#clipPath2)"/>
      <text x="835.4056" xml:space="preserve" y="135.6543" clip-path="url(#clipPath2)" font-family="sans-serif" stroke="none">SnapshotController</text>
    </g>
    <g fill="rgb(255,255,153)" text-rendering="geometricPrecision" shape-rendering="geometricPrecision" transform="matrix(1,0,0,1,-96,-92)" stroke="rgb(255,255,153)">
      <rect x="864.6" width="129" height="49" y="376" clip-path="url(#clipPath2)" stroke="none"/>
    </g>
    <g text-rendering="geometricPrecision" stroke-miterlimit="1.45" shape-rendering="geometricPrecision" transform="matrix(1,0,0,1,-96,-92)" stroke-linecap="butt">
      <rect fill="none" x="864.6" width="129" height="49" y="376" clip-path="url(#clipPath2)"/>
      <text x="894.6322" xml:space="preserve" y="404.6543" clip-path="url(#clipPath2)" font-family="sans-serif" stroke="none">ViewButton</text>
      <path fill="none" d="M175.5 376 L175.5 322 L455.9 322 L455.9 284" clip-path="url(#clipPath2)"/>
      <path d="M455.9 277 L460.9 284 L455.9 291 L450.9 284 Z" clip-path="url(#clipPath2)" stroke="none"/>
      <path fill="none" d="M363.9 376 L363.9 322 L455.9 322 L455.9 284" clip-path="url(#clipPath2)"/>
      <path d="M455.9 277 L460.9 284 L455.9 291 L450.9 284 Z" clip-path="url(#clipPath2)" stroke="none"/>
      <path fill="none" d="M552.3 376 L552.3 322 L455.9 322 L455.9 284" clip-path="url(#clipPath2)"/>
      <path d="M455.9 277 L460.9 284 L455.9 291 L450.9 284 Z" clip-path="url(#clipPath2)" stroke="none"/>
      <path fill="none" d="M740.7 376 L740.7 322 L455.9 322 L455.9 284" clip-path="url(#clipPath2)"/>
      <path d="M455.9 277 L460.9 284 L455.9 291 L450.9 284 Z" clip-path="url(#clipPath2)" stroke="none"/>
      <path fill="none" d="M1117.5 376 L1117.5 322 L455.9 322 L455.9 284" clip-path="url(#clipPath2)"/>
      <path d="M455.9 277 L460.9 284 L455.9 291 L450.9 284 Z" clip-path="url(#clipPath2)" stroke="none"/>
      <path fill="none" d="M552.3 492 L552.3 432" clip-path="url(#clipPath2)"/>
      <path d="M552.3 425 L557.3 432 L552.3 439 L547.3 432 Z" clip-path="url(#clipPath2)" stroke="none"/>
      <path fill="none" d="M455.9 228 L455.9 163" clip-path="url(#clipPath2)"/>
      <path d="M455.9 156 L460.9 163 L455.9 170 L450.9 163 Z" clip-path="url(#clipPath2)" stroke="none"/>
      <path fill="none" d="M929.1 376 L929.1 322 L455.9 322 L455.9 284" clip-path="url(#clipPath2)"/>
      <path d="M455.9 277 L460.9 284 L455.9 291 L450.9 284 Z" clip-path="url(#clipPath2)" stroke="none"/>
    </g>
  </g>
</svg>
