<?xml version="1.0" encoding="UTF-8"?><svg xmlns="http://www.w3.org/2000/svg" xmlns:xlink="http://www.w3.org/1999/xlink" fill-opacity="1" color-rendering="auto" color-interpolation="auto" text-rendering="auto" stroke="black" stroke-linecap="square" width="1354" stroke-miterlimit="10" shape-rendering="auto" stroke-opacity="1" fill="black" stroke-dasharray="none" font-weight="normal" stroke-width="1" height="549" font-family="'Dialog'" font-style="normal" stroke-linejoin="miter" font-size="12px" stroke-dashoffset="0" image-rendering="auto">
  <!--Generated by ySVG 2.5-->
  <defs id="genericDefs"/>
  <g>
    <defs id="defs1">
      <clipPath clipPathUnits="userSpaceOnUse" id="clipPath1">
        <path d="M0 0 L1354 0 L1354 549 L0 549 L0 0 Z"/>
      </clipPath>
      <clipPath clipPathUnits="userSpaceOnUse" id="clipPath2">
        <path d="M33 45 L1387 45 L1387 594 L33 594 L33 45 Z"/>
      </clipPath>
    </defs>
    <g fill="white" text-rendering="geometricPrecision" shape-rendering="geometricPrecision" transform="translate(-33,-45)" stroke="white">
      <rect x="33" width="1354" height="549" y="45" clip-path="url(#clipPath2)" stroke="none"/>
    </g>
    <g fill="rgb(255,204,0)" text-rendering="geometricPrecision" shape-rendering="geometricPrecision" transform="matrix(1,0,0,1,-33,-45)" stroke="rgb(255,204,0)">
      <rect x="234" width="139" height="57" y="214" clip-path="url(#clipPath2)" stroke="none"/>
    </g>
    <g text-rendering="geometricPrecision" stroke-miterlimit="1.45" shape-rendering="geometricPrecision" transform="matrix(1,0,0,1,-33,-45)" stroke-linecap="butt">
      <rect fill="none" x="234" width="139" height="57" y="214" clip-path="url(#clipPath2)"/>
      <text x="292.3496" xml:space="preserve" y="246.6543" clip-path="url(#clipPath2)" font-family="sans-serif" stroke="none">Tab</text>
    </g>
    <g fill="rgb(255,204,0)" text-rendering="geometricPrecision" shape-rendering="geometricPrecision" transform="matrix(1,0,0,1,-33,-45)" stroke="rgb(255,204,0)">
      <rect x="526" width="139" height="57" y="60" clip-path="url(#clipPath2)" stroke="none"/>
    </g>
    <g text-rendering="geometricPrecision" stroke-miterlimit="1.45" shape-rendering="geometricPrecision" transform="matrix(1,0,0,1,-33,-45)" stroke-linecap="butt">
      <rect fill="none" x="526" width="139" height="57" y="60" clip-path="url(#clipPath2)"/>
      <text x="549.3809" xml:space="preserve" y="92.6543" clip-path="url(#clipPath2)" font-family="sans-serif" stroke="none">MenuController</text>
    </g>
    <g fill="rgb(255,204,0)" text-rendering="geometricPrecision" shape-rendering="geometricPrecision" transform="matrix(1,0,0,1,-33,-45)" stroke="rgb(255,204,0)">
      <rect x="48" width="139" height="57" y="368" clip-path="url(#clipPath2)" stroke="none"/>
    </g>
    <g text-rendering="geometricPrecision" stroke-miterlimit="1.45" shape-rendering="geometricPrecision" transform="matrix(1,0,0,1,-33,-45)" stroke-linecap="butt">
      <rect fill="none" x="48" width="139" height="57" y="368" clip-path="url(#clipPath2)"/>
      <text x="91.7744" xml:space="preserve" y="400.6543" clip-path="url(#clipPath2)" font-family="sans-serif" stroke="none">Actuator</text>
    </g>
    <g fill="rgb(255,204,0)" text-rendering="geometricPrecision" shape-rendering="geometricPrecision" transform="matrix(1,0,0,1,-33,-45)" stroke="rgb(255,204,0)">
      <rect x="285" width="139" height="57" y="368" clip-path="url(#clipPath2)" stroke="none"/>
    </g>
    <g text-rendering="geometricPrecision" stroke-miterlimit="1.45" shape-rendering="geometricPrecision" transform="matrix(1,0,0,1,-33,-45)" stroke-linecap="butt">
      <rect fill="none" x="285" width="139" height="57" y="368" clip-path="url(#clipPath2)"/>
      <text x="321.5322" xml:space="preserve" y="400.6543" clip-path="url(#clipPath2)" font-family="sans-serif" stroke="none">Acquisition</text>
    </g>
    <g fill="rgb(255,204,0)" text-rendering="geometricPrecision" shape-rendering="geometricPrecision" transform="matrix(1,0,0,1,-33,-45)" stroke="rgb(255,204,0)">
      <rect x="522" width="139" height="57" y="368" clip-path="url(#clipPath2)" stroke="none"/>
    </g>
    <g text-rendering="geometricPrecision" stroke-miterlimit="1.45" shape-rendering="geometricPrecision" transform="matrix(1,0,0,1,-33,-45)" stroke-linecap="butt">
      <rect fill="none" x="522" width="139" height="57" y="368" clip-path="url(#clipPath2)"/>
      <text x="529.7539" xml:space="preserve" y="400.6543" clip-path="url(#clipPath2)" font-family="sans-serif" stroke="none">StreamBarController</text>
    </g>
    <g fill="rgb(255,204,0)" text-rendering="geometricPrecision" shape-rendering="geometricPrecision" transform="matrix(1,0,0,1,-33,-45)" stroke="rgb(255,204,0)">
      <rect x="759" width="139" height="57" y="364" clip-path="url(#clipPath2)" stroke="none"/>
    </g>
    <g text-rendering="geometricPrecision" stroke-miterlimit="1.45" shape-rendering="geometricPrecision" transform="matrix(1,0,0,1,-33,-45)" stroke-linecap="butt">
      <rect fill="none" x="759" width="139" height="57" y="364" clip-path="url(#clipPath2)"/>
      <text x="805.874" xml:space="preserve" y="396.6543" clip-path="url(#clipPath2)" font-family="sans-serif" stroke="none">Toolbar</text>
    </g>
    <g fill="rgb(255,204,0)" text-rendering="geometricPrecision" shape-rendering="geometricPrecision" transform="matrix(1,0,0,1,-33,-45)" stroke="rgb(255,204,0)">
      <rect x="996" width="139" height="57" y="364" clip-path="url(#clipPath2)" stroke="none"/>
    </g>
    <g text-rendering="geometricPrecision" stroke-miterlimit="1.45" shape-rendering="geometricPrecision" transform="matrix(1,0,0,1,-33,-45)" stroke-linecap="butt">
      <rect fill="none" x="996" width="139" height="57" y="364" clip-path="url(#clipPath2)"/>
      <text x="1031.0322" xml:space="preserve" y="396.6543" clip-path="url(#clipPath2)" font-family="sans-serif" stroke="none">ViewButton</text>
    </g>
    <g fill="rgb(255,204,0)" text-rendering="geometricPrecision" shape-rendering="geometricPrecision" transform="matrix(1,0,0,1,-33,-45)" stroke="rgb(255,204,0)">
      <rect x="1233" width="139" height="57" y="368" clip-path="url(#clipPath2)" stroke="none"/>
    </g>
    <g text-rendering="geometricPrecision" stroke-miterlimit="1.45" shape-rendering="geometricPrecision" transform="matrix(1,0,0,1,-33,-45)" stroke-linecap="butt">
      <rect fill="none" x="1233" width="139" height="57" y="368" clip-path="url(#clipPath2)"/>
      <text x="1276.0215" xml:space="preserve" y="400.6543" clip-path="url(#clipPath2)" font-family="sans-serif" stroke="none">ViewPort</text>
    </g>
    <g fill="rgb(255,204,0)" text-rendering="geometricPrecision" shape-rendering="geometricPrecision" transform="matrix(1,0,0,1,-33,-45)" stroke="rgb(255,204,0)">
      <rect x="522" width="139" height="57" y="522" clip-path="url(#clipPath2)" stroke="none"/>
    </g>
    <g text-rendering="geometricPrecision" stroke-miterlimit="1.45" shape-rendering="geometricPrecision" transform="matrix(1,0,0,1,-33,-45)" stroke-linecap="butt">
      <rect fill="none" x="522" width="139" height="57" y="522" clip-path="url(#clipPath2)"/>
      <text x="540.0137" xml:space="preserve" y="554.6543" clip-path="url(#clipPath2)" font-family="sans-serif" stroke="none">StreamController</text>
    </g>
    <g fill="rgb(255,204,0)" text-rendering="geometricPrecision" shape-rendering="geometricPrecision" transform="matrix(1,0,0,1,-33,-45)" stroke="rgb(255,204,0)">
      <rect x="234" width="139" height="57" y="60" clip-path="url(#clipPath2)" stroke="none"/>
    </g>
    <g text-rendering="geometricPrecision" stroke-miterlimit="1.45" shape-rendering="geometricPrecision" transform="matrix(1,0,0,1,-33,-45)" stroke-linecap="butt">
      <rect fill="none" x="234" width="139" height="57" y="60" clip-path="url(#clipPath2)"/>
      <text x="252.4443" xml:space="preserve" y="92.6543" clip-path="url(#clipPath2)" font-family="sans-serif" stroke="none">TabBarController</text>
    </g>
    <g fill="rgb(255,204,0)" text-rendering="geometricPrecision" shape-rendering="geometricPrecision" transform="matrix(1,0,0,1,-33,-45)" stroke="rgb(255,204,0)">
      <rect x="818" width="139" height="57" y="60" clip-path="url(#clipPath2)" stroke="none"/>
    </g>
    <g text-rendering="geometricPrecision" stroke-miterlimit="1.45" shape-rendering="geometricPrecision" transform="matrix(1,0,0,1,-33,-45)" stroke-linecap="butt">
      <rect fill="none" x="818" width="139" height="57" y="60" clip-path="url(#clipPath2)"/>
      <text x="829.8057" xml:space="preserve" y="92.6543" clip-path="url(#clipPath2)" font-family="sans-serif" stroke="none">SnapshotController</text>
      <path fill="none" d="M117.5 368 L117.5 322 L303.5 322 L303.5 278" clip-path="url(#clipPath2)"/>
      <path d="M303.5 271 L308.5 278 L303.5 285 L298.5 278 Z" clip-path="url(#clipPath2)" stroke="none"/>
      <path fill="none" d="M354.5 368 L354.5 322 L303.5 322 L303.5 278" clip-path="url(#clipPath2)"/>
      <path d="M303.5 271 L308.5 278 L303.5 285 L298.5 278 Z" clip-path="url(#clipPath2)" stroke="none"/>
      <path fill="none" d="M591.5 368 L591.5 322 L303.5 322 L303.5 278" clip-path="url(#clipPath2)"/>
      <path d="M303.5 271 L308.5 278 L303.5 285 L298.5 278 Z" clip-path="url(#clipPath2)" stroke="none"/>
      <path fill="none" d="M828.5 364 L828.5 322 L303.5 322 L303.5 278" clip-path="url(#clipPath2)"/>
      <path d="M303.5 271 L308.5 278 L303.5 285 L298.5 278 Z" clip-path="url(#clipPath2)" stroke="none"/>
      <path fill="none" d="M1065.5 364 L1065.5 322 L303.5 322 L303.5 278" clip-path="url(#clipPath2)"/>
      <path d="M303.5 271 L308.5 278 L303.5 285 L298.5 278 Z" clip-path="url(#clipPath2)" stroke="none"/>
      <path fill="none" d="M1302.5 368 L1302.5 322 L303.5 322 L303.5 278" clip-path="url(#clipPath2)"/>
      <path d="M303.5 271 L308.5 278 L303.5 285 L298.5 278 Z" clip-path="url(#clipPath2)" stroke="none"/>
      <path fill="none" d="M591.5 522 L591.5 469.6212 L591.5 432" clip-path="url(#clipPath2)"/>
      <path d="M591.5 425 L596.5 432 L591.5 439 L586.5 432 Z" clip-path="url(#clipPath2)" stroke="none"/>
      <path fill="none" d="M303.5 214 L303.5 124" clip-path="url(#clipPath2)"/>
      <path d="M303.5 117 L308.5 124 L303.5 131 L298.5 124 Z" clip-path="url(#clipPath2)" stroke="none"/>
    </g>
  </g>
</svg>
