<?xml version="1.0" encoding="UTF-8" standalone="no"?>
<svg
   xmlns:dc="http://purl.org/dc/elements/1.1/"
   xmlns:cc="http://creativecommons.org/ns#"
   xmlns:rdf="http://www.w3.org/1999/02/22-rdf-syntax-ns#"
   xmlns:svg="http://www.w3.org/2000/svg"
   xmlns="http://www.w3.org/2000/svg"
   xmlns:sodipodi="http://sodipodi.sourceforge.net/DTD/sodipodi-0.dtd"
   xmlns:inkscape="http://www.inkscape.org/namespaces/inkscape"
   version="1.0"
   width="181.6735mm"
   height="160.18933mm"
   id="svg109"
   sodipodi:docname="module-dependencies2004.svg"
   inkscape:version="0.92.5 (2060ec1f9f, 2020-04-08)">
  <metadata
     id="metadata113">
    <rdf:RDF>
      <cc:Work
         rdf:about="">
        <dc:format>image/svg+xml</dc:format>
        <dc:type
           rdf:resource="http://purl.org/dc/dcmitype/StillImage" />
        <dc:title></dc:title>
      </cc:Work>
    </rdf:RDF>
  </metadata>
  <sodipodi:namedview
     pagecolor="#ffffff"
     bordercolor="#666666"
     borderopacity="1"
     objecttolerance="10"
     gridtolerance="10"
     guidetolerance="10"
     inkscape:pageopacity="0"
     inkscape:pageshadow="2"
     inkscape:window-width="640"
     inkscape:window-height="480"
     id="namedview111"
     showgrid="false"
     inkscape:zoom="0.38979916"
     inkscape:cx="343.31999"
     inkscape:cy="302.72"
     inkscape:window-x="72"
     inkscape:window-y="27"
     inkscape:window-maximized="0"
     inkscape:current-layer="svg109" />
  <defs
     id="defs3">
    <pattern
       id="WMFhbasepattern"
       patternUnits="userSpaceOnUse"
       width="6"
       height="6"
       x="0"
       y="0" />
  </defs>
  <path
     style="fill:#ffff98;fill-rule:evenodd;fill-opacity:1;stroke:#d6b14d;stroke-width:4px;stroke-linecap:butt;stroke-linejoin:round;stroke-miterlimit:5;stroke-dasharray:none;stroke-opacity:1;"
     d="  M 33.6,171.76   L 335.12,171.76   L 335.12,262.32   L 33.6,262.32   L 33.6,171.76  z "
     id="path5" />
  <path
     style="fill:#000000;fill-rule:evenodd;fill-opacity:1;stroke:none;"
     d="  M 129.6,205.2   L 129.6,192.64   L 133.44,192.64   L 133.44,225.04   L 129.6,225.04   L 129.6,221.52   L 128.96,222.56   L 127.44,224.08   L 126.48,224.64   L 125.52,225.12   L 123.36,225.6   L 122.08,225.6   L 121.04,225.6   L 119.12,225.2   L 117.44,224.32   L 115.84,223.04   L 115.2,222.24   L 114.56,221.36   L 113.6,219.44   L 112.64,216   L 112.56,213.36   L 112.64,210.72   L 113.6,207.36   L 114.56,205.36   L 115.2,204.48   L 115.84,203.68   L 117.44,202.4   L 119.12,201.6   L 121.04,201.2   L 122.08,201.12   L 123.36,201.2   L 125.52,201.68   L 126.48,202.16   L 127.44,202.72   L 128.96,204.24  z    M 116.48,213.36   L 116.56,215.44   L 117.44,218.72   L 118.24,220   L 119.2,221.12   L 121.6,222.32   L 123.04,222.4   L 124.48,222.32   L 126.88,221.12   L 127.84,220   L 128.64,218.72   L 129.52,215.44   L 129.6,213.36   L 129.52,211.36   L 128.64,208   L 127.84,206.72   L 126.88,205.68   L 124.48,204.4   L 123.04,204.32   L 121.6,204.4   L 119.2,205.68   L 118.24,206.72   L 117.44,208   L 116.56,211.36  z   "
     id="path7" />
  <path
     style="fill:#000000;fill-rule:evenodd;fill-opacity:1;stroke:none;"
     d="  M 154.8,205.28   L 154.16,204.96   L 153.44,204.72   L 152.64,204.56   L 151.76,204.56   L 150.16,204.64   L 147.68,205.68   L 146.72,206.64   L 145.92,207.76   L 145.04,210.8   L 145.04,212.72   L 145.04,225.04   L 141.12,225.04   L 141.12,201.68   L 145.04,201.68   L 145.04,205.28   L 145.68,204.32   L 147.2,202.72   L 148.16,202.16   L 149.12,201.68   L 151.52,201.2   L 152.88,201.12   L 153.28,201.12   L 153.76,201.2   L 154.24,201.28   L 154.8,201.36   L 154.8,205.28  z "
     id="path9" />
  <path
     style="fill:#000000;fill-rule:evenodd;fill-opacity:1;stroke:none;"
     d="  M 158.88,201.68   L 162.64,201.68   L 162.64,225.04   L 158.88,225.04  z    M 158.88,192.64   L 162.64,192.64   L 162.64,197.44   L 158.88,197.44  z   "
     id="path11" />
  <path
     style="fill:#000000;fill-rule:evenodd;fill-opacity:1;stroke:none;"
     d="  M 167.92,201.68   L 172,201.68   L 179.28,221.28   L 186.56,201.68   L 190.64,201.68   L 181.92,225.04   L 176.72,225.04   L 167.92,201.68  z "
     id="path13" />
  <path
     style="fill:#000000;fill-rule:evenodd;fill-opacity:1;stroke:none;"
     d="  M 215.92,212.4   L 215.92,214.24   L 198.24,214.24   L 198.48,216.16   L 199.68,219.2   L 200.64,220.32   L 201.76,221.28   L 204.8,222.32   L 206.64,222.4   L 208.8,222.32   L 210.88,221.84   L 212.96,221.2   L 215.04,220.24   L 215.04,223.84   L 212.96,224.64   L 210.8,225.2   L 208.64,225.52   L 206.4,225.6   L 205.04,225.6   L 202.48,225.2   L 200.32,224.4   L 198.4,223.12   L 197.52,222.4   L 196.72,221.52   L 195.52,219.6   L 194.72,217.44   L 194.32,214.96   L 194.24,213.6   L 194.32,212.16   L 194.72,209.6   L 195.44,207.36   L 196.64,205.36   L 197.36,204.48   L 198.16,203.68   L 200,202.4   L 202.08,201.6   L 204.4,201.2   L 205.68,201.12   L 206.88,201.12   L 208.96,201.52   L 210.8,202.32   L 212.48,203.44   L 213.12,204.16   L 213.84,204.96   L 214.88,206.72   L 215.52,208.8   L 215.84,211.12  z    M 212.08,211.28   L 212,209.76   L 211.12,207.28   L 210.32,206.24   L 209.36,205.36   L 207.12,204.48   L 205.76,204.4   L 204.24,204.48   L 201.6,205.36   L 200.64,206.16   L 199.76,207.12   L 198.64,209.68   L 198.4,211.28  z   "
     id="path15" />
  <path
     style="fill:#000000;fill-rule:evenodd;fill-opacity:1;stroke:none;"
     d="  M 235.68,205.28   L 235.04,204.96   L 234.32,204.72   L 233.52,204.56   L 232.64,204.56   L 231.04,204.64   L 228.56,205.68   L 227.6,206.64   L 226.8,207.76   L 226,210.8   L 225.92,212.72   L 225.92,225.04   L 222.08,225.04   L 222.08,201.68   L 225.92,201.68   L 225.92,205.28   L 226.56,204.32   L 228.08,202.72   L 229.04,202.16   L 230.08,201.68   L 232.4,201.2   L 233.76,201.12   L 234.16,201.12   L 234.64,201.2   L 235.12,201.28   L 235.68,201.36   L 235.68,205.28  z "
     id="path17" />
  <path
     style="fill:#ffff98;fill-rule:evenodd;fill-opacity:1;stroke:#d6b14d;stroke-width:4px;stroke-linecap:butt;stroke-linejoin:round;stroke-miterlimit:5;stroke-dasharray:none;stroke-opacity:1;"
     d="  M 192.96,332.32   L 494.48,332.32   L 494.48,422.88   L 192.96,422.88   L 192.96,332.32  z "
     id="path19" />
  <path
     style="fill:#000000;fill-rule:evenodd;fill-opacity:1;stroke:none;"
     d="  M 319.12,373.84   L 316.96,373.84   L 313.68,374.4   L 312.72,374.88   L 311.84,375.44   L 310.96,377.28   L 310.88,378.48   L 310.96,379.52   L 311.6,381.12   L 312.24,381.76   L 312.96,382.32   L 314.8,382.88   L 315.92,382.96   L 317.44,382.88   L 320,381.68   L 320.96,380.72   L 321.92,379.52   L 322.88,376.48   L 322.96,374.64   L 322.96,373.84  z    M 326.8,372.24   L 326.8,385.52   L 322.96,385.52   L 322.96,382   L 322.24,383.04   L 320.64,384.56   L 319.68,385.12   L 318.64,385.6   L 316.24,386.08   L 314.88,386.16   L 313.12,386.08   L 310.32,385.04   L 309.2,384.16   L 308.24,383.04   L 307.12,380.4   L 307.04,378.72   L 307.2,376.88   L 308.08,374.56   L 309.04,373.36   L 309.68,372.8   L 311.12,371.92   L 315.04,370.88   L 317.6,370.8   L 322.96,370.8   L 322.96,370.4   L 322.88,369.2   L 322,367.12   L 321.2,366.32   L 320.24,365.68   L 317.84,364.96   L 316.32,364.88   L 314.32,364.96   L 312.4,365.36   L 310.56,365.92   L 308.8,366.8   L 308.8,363.28   L 310.88,362.56   L 312.88,362.08   L 314.8,361.68   L 316.72,361.68   L 319.12,361.76   L 322.08,362.64   L 323.6,363.6   L 324.24,364.24   L 324.88,364.96   L 325.84,366.64   L 326.64,369.68  z   "
     id="path21" />
  <path
     style="fill:#000000;fill-rule:evenodd;fill-opacity:1;stroke:none;"
     d="  M 351.44,363.12   L 351.44,366.72   L 349.84,365.84   L 348.16,365.36   L 346.56,364.96   L 344.88,364.88   L 343.12,364.96   L 340.24,366.16   L 339.12,367.28   L 338.16,368.56   L 337.12,371.84   L 337.04,373.92   L 337.12,375.92   L 338.16,379.28   L 339.12,380.56   L 340.24,381.6   L 343.12,382.8   L 344.88,382.88   L 346.56,382.8   L 348.16,382.48   L 349.84,381.92   L 351.44,381.12   L 351.44,384.64   L 349.84,385.36   L 348.16,385.76   L 346.4,386.08   L 344.48,386.16   L 343.2,386.08   L 340.8,385.68   L 338.72,384.88   L 336.88,383.6   L 336.08,382.8   L 335.36,382   L 334.16,380   L 333.44,377.76   L 333.04,375.28   L 332.96,373.92   L 333.04,372.48   L 333.44,369.92   L 334.24,367.68   L 335.36,365.76   L 336.16,364.88   L 336.96,364.16   L 338.8,362.88   L 340.96,362.08   L 343.36,361.68   L 344.72,361.68   L 346.48,361.68   L 348.16,362   L 349.84,362.4   L 351.44,363.12  z "
     id="path23" />
  <path
     style="fill:#000000;fill-rule:evenodd;fill-opacity:1;stroke:none;"
     d="  M 360.4,373.92   L 360.48,375.92   L 361.36,379.28   L 362.16,380.56   L 363.04,381.6   L 365.44,382.8   L 366.96,382.96   L 368.4,382.8   L 370.8,381.6   L 371.76,380.56   L 372.56,379.28   L 373.44,375.92   L 373.44,373.92   L 373.44,371.84   L 372.56,368.56   L 371.76,367.28   L 370.8,366.16   L 368.4,364.96   L 366.96,364.88   L 365.44,364.96   L 363.04,366.16   L 362.16,367.28   L 361.36,368.56   L 360.48,371.84  z    M 373.44,382   L 372.88,383.04   L 371.28,384.56   L 370.4,385.12   L 369.44,385.6   L 367.28,386.08   L 366,386.16   L 364.96,386.08   L 363.04,385.68   L 361.28,384.88   L 359.76,383.6   L 359.12,382.8   L 358.48,381.92   L 357.44,379.92   L 356.56,376.56   L 356.48,373.92   L 356.56,371.2   L 357.44,367.84   L 358.48,365.92   L 359.12,365.04   L 359.76,364.24   L 361.28,362.96   L 363.04,362.08   L 364.96,361.68   L 366,361.68   L 367.28,361.68   L 369.44,362.16   L 370.4,362.64   L 371.28,363.2   L 372.88,364.72   L 373.44,365.76   L 373.44,362.24   L 377.28,362.24   L 377.28,394.4   L 373.44,394.4  z   "
     id="path25" />
  <path
     style="fill:#ffff98;fill-rule:evenodd;fill-opacity:1;stroke:#d6b14d;stroke-width:4px;stroke-linecap:butt;stroke-linejoin:round;stroke-miterlimit:5;stroke-dasharray:none;stroke-opacity:1;"
     d="  M 383.12,512.88   L 684.64,512.88   L 684.64,603.44   L 383.12,603.44   L 383.12,512.88  z "
     id="path27" />
  <path
     style="fill:#000000;fill-rule:evenodd;fill-opacity:1;stroke:none;"
     d="  M 530.16,543.68   L 530.16,547.28   L 528.56,546.4   L 526.88,545.92   L 525.28,545.52   L 523.6,545.44   L 521.84,545.52   L 518.96,546.72   L 517.84,547.84   L 516.88,549.12   L 515.84,552.4   L 515.76,554.48   L 515.84,556.48   L 516.88,559.84   L 517.84,561.12   L 518.96,562.16   L 521.84,563.36   L 523.6,563.44   L 525.28,563.36   L 526.88,563.04   L 528.56,562.48   L 530.16,561.68   L 530.16,565.2   L 528.56,565.92   L 526.88,566.32   L 525.12,566.64   L 523.2,566.72   L 521.92,566.64   L 519.52,566.24   L 517.44,565.44   L 515.6,564.16   L 514.8,563.36   L 514.08,562.56   L 512.96,560.64   L 512.16,558.4   L 511.76,555.84   L 511.76,554.48   L 511.76,553.04   L 512.16,550.48   L 512.96,548.24   L 514.08,546.32   L 514.88,545.52   L 515.68,544.72   L 517.52,543.44   L 519.68,542.64   L 522.08,542.24   L 523.44,542.24   L 525.2,542.24   L 526.88,542.56   L 528.56,543.04   L 530.16,543.68  z "
     id="path29" />
  <path
     style="fill:#000000;fill-rule:evenodd;fill-opacity:1;stroke:none;"
     d="  M 536.88,533.68   L 540.72,533.68   L 540.72,566.08   L 536.88,566.08   L 536.88,533.68  z "
     id="path31" />
  <path
     style="fill:#000000;fill-rule:evenodd;fill-opacity:1;stroke:none;"
     d="  M 548.72,542.8   L 552.56,542.8   L 552.56,566.08   L 548.72,566.08  z    M 548.72,533.68   L 552.56,533.68   L 552.56,538.56   L 548.72,538.56  z   "
     id="path33" />
  <path
     style="fill:#ffff98;fill-rule:evenodd;fill-opacity:1;stroke:#d6b14d;stroke-width:4px;stroke-linecap:butt;stroke-linejoin:round;stroke-miterlimit:5;stroke-dasharray:none;stroke-opacity:1;"
     d="  M 382.16,173.44   L 683.68,173.44   L 683.68,264   L 382.16,264   L 382.16,173.44  z "
     id="path35" />
  <path
     style="fill:#000000;fill-rule:evenodd;fill-opacity:1;stroke:none;"
     d="  M 484.4,206.88   L 484.4,194.24   L 488.24,194.24   L 488.24,226.64   L 484.4,226.64   L 484.4,223.12   L 483.76,224.16   L 482.24,225.68   L 481.28,226.24   L 480.32,226.72   L 478.16,227.2   L 476.88,227.28   L 475.84,227.2   L 473.92,226.8   L 472.24,226   L 470.64,224.72   L 470,223.92   L 469.36,223.04   L 468.4,221.04   L 467.44,217.68   L 467.36,215.04   L 467.44,212.32   L 468.4,208.96   L 469.36,207.04   L 470,206.16   L 470.64,205.36   L 472.24,204.08   L 473.92,203.2   L 475.84,202.8   L 476.88,202.8   L 478.16,202.8   L 480.32,203.28   L 481.28,203.76   L 482.24,204.32   L 483.76,205.84  z    M 471.28,215.04   L 471.36,217.04   L 472.24,220.4   L 473.04,221.68   L 474,222.72   L 476.32,223.92   L 477.84,224.08   L 479.28,223.92   L 481.68,222.72   L 482.64,221.68   L 483.44,220.4   L 484.32,217.04   L 484.4,215.04   L 484.32,212.96   L 483.44,209.68   L 482.64,208.4   L 481.68,207.28   L 479.28,206.08   L 477.84,206   L 476.32,206.08   L 474,207.28   L 473.04,208.4   L 472.24,209.68   L 471.36,212.96  z   "
     id="path37" />
  <path
     style="fill:#000000;fill-rule:evenodd;fill-opacity:1;stroke:none;"
     d="  M 506.72,214.96   L 504.48,214.96   L 501.28,215.52   L 500.24,216   L 499.44,216.56   L 498.56,218.4   L 498.48,219.6   L 498.56,220.64   L 499.2,222.24   L 499.84,222.88   L 500.56,223.44   L 502.32,224   L 503.44,224.08   L 505.04,223.92   L 507.6,222.8   L 508.56,221.84   L 509.44,220.64   L 510.4,217.6   L 510.48,215.76   L 510.48,214.96  z    M 514.32,213.36   L 514.32,226.64   L 510.48,226.64   L 510.48,223.12   L 509.84,224.16   L 508.16,225.68   L 507.28,226.24   L 506.24,226.72   L 503.84,227.2   L 502.48,227.28   L 500.72,227.2   L 497.84,226.16   L 496.72,225.28   L 495.76,224.16   L 494.72,221.52   L 494.64,219.84   L 494.72,218   L 495.68,215.68   L 496.64,214.48   L 497.28,213.92   L 498.72,213.04   L 502.64,212   L 505.12,211.92   L 510.48,211.92   L 510.48,211.52   L 510.4,210.32   L 509.6,208.24   L 508.8,207.44   L 507.84,206.8   L 505.44,206.08   L 503.92,206   L 501.92,206.08   L 500,206.48   L 498.16,207.04   L 496.32,207.92   L 496.32,204.4   L 498.4,203.68   L 500.4,203.2   L 502.4,202.8   L 504.32,202.8   L 506.72,202.88   L 509.6,203.76   L 511.2,204.72   L 511.84,205.36   L 512.48,206.08   L 513.36,207.76   L 514.24,210.8  z   "
     id="path39" />
  <path
     style="fill:#000000;fill-rule:evenodd;fill-opacity:1;stroke:none;"
     d="  M 526,196.72   L 526,203.36   L 533.92,203.36   L 533.92,206.32   L 526,206.32   L 526,218.96   L 526.08,220.32   L 526.48,222.16   L 526.8,222.64   L 527.28,223.04   L 528.88,223.44   L 530,223.44   L 533.92,223.44   L 533.92,226.64   L 530,226.64   L 527.92,226.56   L 524.8,225.76   L 523.84,225.04   L 523.12,224.08   L 522.24,221.04   L 522.16,218.96   L 522.16,206.32   L 519.36,206.32   L 519.36,203.36   L 522.16,203.36   L 522.16,196.72   L 526,196.72  z "
     id="path41" />
  <path
     style="fill:#000000;fill-rule:evenodd;fill-opacity:1;stroke:none;"
     d="  M 549.6,214.96   L 547.36,214.96   L 544.16,215.52   L 543.12,216   L 542.32,216.56   L 541.44,218.4   L 541.36,219.6   L 541.44,220.64   L 542.08,222.24   L 542.64,222.88   L 543.36,223.44   L 545.2,224   L 546.32,224.08   L 547.92,223.92   L 550.4,222.8   L 551.44,221.84   L 552.32,220.64   L 553.28,217.6   L 553.36,215.76   L 553.36,214.96  z    M 557.2,213.36   L 557.2,226.64   L 553.36,226.64   L 553.36,223.12   L 552.72,224.16   L 551.04,225.68   L 550.08,226.24   L 549.12,226.72   L 546.72,227.2   L 545.36,227.28   L 543.6,227.2   L 540.72,226.16   L 539.6,225.28   L 538.64,224.16   L 537.6,221.52   L 537.52,219.84   L 537.6,218   L 538.56,215.68   L 539.52,214.48   L 540.16,213.92   L 541.6,213.04   L 545.52,212   L 548,211.92   L 553.36,211.92   L 553.36,211.52   L 553.28,210.32   L 552.4,208.24   L 551.6,207.44   L 550.72,206.8   L 548.24,206.08   L 546.8,206   L 544.8,206.08   L 542.88,206.48   L 540.96,207.04   L 539.2,207.92   L 539.2,204.4   L 541.28,203.68   L 543.28,203.2   L 545.28,202.8   L 547.12,202.8   L 549.6,202.88   L 552.48,203.76   L 554.08,204.72   L 554.72,205.36   L 555.28,206.08   L 556.24,207.76   L 557.12,210.8  z   "
     id="path43" />
  <path
     style="fill:#000000;fill-rule:evenodd;fill-opacity:1;stroke:none;"
     d="  M 565.12,203.36   L 568.96,203.36   L 568.96,226.64   L 565.12,226.64  z    M 565.12,194.24   L 568.96,194.24   L 568.96,199.12   L 565.12,199.12  z   "
     id="path45" />
  <path
     style="fill:#000000;fill-rule:evenodd;fill-opacity:1;stroke:none;"
     d="  M 586,206   L 584.56,206.08   L 582.08,207.36   L 581.12,208.4   L 580.32,209.68   L 579.44,212.96   L 579.36,215.04   L 579.44,217.04   L 580.32,220.32   L 581.12,221.6   L 582.08,222.72   L 584.48,223.92   L 586,224   L 587.52,223.92   L 589.92,222.72   L 590.88,221.6   L 591.68,220.32   L 592.56,217.04   L 592.64,215.04   L 592.56,213.04   L 591.68,209.76   L 590.88,208.48   L 589.92,207.36   L 587.52,206.08  z    M 586,202.8   L 587.28,202.8   L 589.44,203.2   L 591.44,204   L 593.12,205.2   L 593.84,206   L 594.56,206.88   L 595.6,208.8   L 596.32,211.04   L 596.72,213.6   L 596.72,215.04   L 596.72,216.4   L 596.32,218.96   L 595.6,221.2   L 594.56,223.2   L 593.84,224   L 593.12,224.8   L 591.44,226   L 589.44,226.8   L 587.28,227.2   L 586,227.28   L 584.8,227.2   L 582.56,226.8   L 580.56,226   L 578.88,224.8   L 578.16,224   L 577.44,223.2   L 576.4,221.2   L 575.68,218.96   L 575.36,216.4   L 575.28,215.04   L 575.36,213.6   L 575.68,211.04   L 576.4,208.8   L 577.44,206.88   L 578.16,206   L 578.88,205.2   L 580.56,204   L 582.56,203.2   L 584.8,202.8  z   "
     id="path47" />
  <path
     style="fill:#ffff98;fill-rule:evenodd;fill-opacity:1;stroke:#d6b14d;stroke-width:4px;stroke-linecap:butt;stroke-linejoin:round;stroke-miterlimit:5;stroke-dasharray:none;stroke-opacity:1;"
     d="  M 2,509.28   L 303.52,509.28   L 303.52,599.84   L 2,599.84   L 2,509.28  z "
     id="path49" />
  <path
     style="fill:#000000;fill-rule:evenodd;fill-opacity:1;stroke:none;"
     d="  M 138.24,550.56   L 138.16,548.56   L 137.28,545.28   L 136.48,544.08   L 135.6,543.04   L 133.2,541.92   L 131.68,541.76   L 130.24,541.92   L 127.84,543.04   L 126.88,544.08   L 126.08,545.28   L 125.28,548.56   L 125.2,550.56   L 125.28,552.56   L 126.08,555.76   L 126.88,556.96   L 127.84,558   L 130.24,559.2   L 131.68,559.28   L 133.2,559.2   L 135.6,558   L 136.48,556.96   L 137.28,555.76   L 138.16,552.56  z    M 142.08,559.6   L 142.08,561.04   L 141.68,563.6   L 141.04,565.84   L 140.08,567.68   L 139.44,568.4   L 138.72,569.12   L 137.04,570.24   L 135.04,570.96   L 132.64,571.28   L 131.36,571.36   L 129.36,571.28   L 127.52,571.04   L 125.76,570.72   L 124,570.08   L 124,566.4   L 125.68,567.2   L 127.36,567.76   L 129.04,568.08   L 130.72,568.16   L 132.56,568.08   L 135.36,567.12   L 136.4,566.24   L 137.2,565.12   L 138.16,562.16   L 138.24,560.24   L 138.24,558.4   L 137.6,559.36   L 136.08,560.88   L 135.2,561.44   L 134.24,561.92   L 132,562.4   L 130.8,562.48   L 129.68,562.4   L 127.76,562   L 126,561.2   L 124.48,560   L 123.84,559.2   L 123.2,558.4   L 122.24,556.48   L 121.36,553.12   L 121.2,550.56   L 121.36,547.92   L 122.24,544.56   L 123.2,542.72   L 123.84,541.84   L 124.48,541.04   L 126,539.84   L 127.76,539.04   L 129.68,538.64   L 130.8,538.56   L 132,538.64   L 134.24,539.12   L 135.2,539.6   L 136.08,540.16   L 137.6,541.68   L 138.24,542.72   L 138.24,539.12   L 142.08,539.12  z   "
     id="path51" />
  <path
     style="fill:#000000;fill-rule:evenodd;fill-opacity:1;stroke:none;"
     d="  M 149.6,553.28   L 149.6,539.12   L 153.44,539.12   L 153.44,553.12   L 153.44,554.72   L 154.08,557.2   L 154.72,558.08   L 155.36,558.88   L 157.36,559.68   L 158.56,559.76   L 160.08,559.68   L 162.48,558.64   L 163.44,557.76   L 164.32,556.72   L 165.2,554   L 165.28,552.4   L 165.28,539.12   L 169.12,539.12   L 169.12,562.48   L 165.28,562.48   L 165.28,558.88   L 164.56,559.92   L 162.96,561.52   L 162,562.08   L 161.12,562.56   L 158.96,563.04   L 157.76,563.04   L 155.84,562.96   L 153.52,562.08   L 152.16,561.2   L 151.68,560.56   L 150.72,559.2   L 149.68,555.6  z   "
     id="path53" />
  <path
     style="fill:#000000;fill-rule:evenodd;fill-opacity:1;stroke:none;"
     d="  M 177.04,539.12   L 180.88,539.12   L 180.88,562.48   L 177.04,562.48  z    M 177.04,530.08   L 180.88,530.08   L 180.88,534.88   L 177.04,534.88  z   "
     id="path55" />
  <path
     style="fill:#ffff98;fill-rule:evenodd;fill-opacity:1;stroke:#d6b14d;stroke-width:4px;stroke-linecap:butt;stroke-linejoin:round;stroke-miterlimit:5;stroke-dasharray:none;stroke-opacity:1;"
     d="  M 32.32,5.2   L 333.84,5.2   L 333.84,95.76   L 32.32,95.76   L 32.32,5.2  z "
     id="path57" />
  <path
     style="fill:#000000;fill-rule:evenodd;fill-opacity:1;stroke:none;"
     d="  M 143.76,36.64   L 144.56,35.44   L 146.24,33.52   L 147.2,32.8   L 148.24,32.24   L 150.64,31.68   L 151.92,31.6   L 153.68,31.68   L 155.84,32.56   L 157.04,33.52   L 157.52,34.16   L 158.48,35.52   L 159.44,39.12   L 159.52,41.44   L 159.52,55.52   L 155.68,55.52   L 155.68,41.52   L 155.6,39.92   L 155.04,37.44   L 154.48,36.56   L 153.84,35.84   L 152,35.04   L 150.88,34.96   L 149.44,35.04   L 147.04,36   L 146.16,36.88   L 145.36,38   L 144.48,40.64   L 144.4,42.32   L 144.4,55.52   L 140.56,55.52   L 140.56,41.52   L 140.56,39.92   L 139.92,37.44   L 139.36,36.56   L 138.72,35.84   L 136.88,35.04   L 135.76,34.96   L 134.32,35.04   L 132,36   L 131.04,36.96   L 130.24,38   L 129.36,40.64   L 129.36,42.32   L 129.36,55.52   L 125.44,55.52   L 125.44,32.16   L 129.36,32.16   L 129.36,35.76   L 130,34.8   L 131.6,33.2   L 132.48,32.64   L 133.44,32.16   L 135.6,31.68   L 136.8,31.6   L 138.08,31.68   L 140.24,32.32   L 141.12,32.88   L 142,33.6   L 143.28,35.44   L 143.76,36.64  z "
     id="path59" />
  <path
     style="fill:#000000;fill-rule:evenodd;fill-opacity:1;stroke:none;"
     d="  M 176.24,34.88   L 174.72,34.96   L 172.32,36.16   L 171.36,37.28   L 170.56,38.56   L 169.6,41.84   L 169.52,43.84   L 169.6,45.84   L 170.48,49.2   L 171.36,50.48   L 172.24,51.52   L 174.72,52.72   L 176.24,52.88   L 177.68,52.72   L 180.16,51.52   L 181.04,50.4   L 181.92,49.12   L 182.8,45.84   L 182.88,43.84   L 182.8,41.84   L 181.92,38.56   L 181.04,37.28   L 180.16,36.16   L 177.68,34.96  z    M 176.24,31.6   L 177.44,31.6   L 179.68,32.08   L 181.68,32.88   L 183.36,34.08   L 184.08,34.88   L 184.72,35.68   L 185.84,37.6   L 186.56,39.92   L 186.88,42.48   L 186.96,43.84   L 186.88,45.28   L 186.56,47.84   L 185.84,50.08   L 184.72,52   L 184.08,52.88   L 183.36,53.6   L 181.68,54.88   L 179.68,55.68   L 177.44,56.08   L 176.24,56.08   L 174.96,56.08   L 172.72,55.68   L 170.8,54.88   L 169.12,53.6   L 168.32,52.88   L 167.68,52   L 166.64,50.08   L 165.92,47.84   L 165.52,45.28   L 165.52,43.84   L 165.52,42.48   L 165.92,39.92   L 166.64,37.6   L 167.68,35.68   L 168.32,34.88   L 169.12,34.08   L 170.8,32.88   L 172.72,32.08   L 174.96,31.6  z   "
     id="path61" />
  <path
     style="fill:#000000;fill-rule:evenodd;fill-opacity:1;stroke:none;"
     d="  M 208.64,35.68   L 208.64,23.12   L 212.48,23.12   L 212.48,55.52   L 208.64,55.52   L 208.64,52   L 208,52.96   L 206.48,54.56   L 205.6,55.12   L 204.64,55.6   L 202.4,56.08   L 201.12,56.08   L 200.08,56.08   L 198.16,55.68   L 196.48,54.8   L 194.96,53.52   L 194.24,52.72   L 193.6,51.84   L 192.64,49.92   L 191.76,46.48   L 191.6,43.84   L 191.76,41.2   L 192.64,37.76   L 193.6,35.84   L 194.24,34.96   L 194.96,34.16   L 196.48,32.88   L 198.16,32.08   L 200.08,31.6   L 201.12,31.6   L 202.4,31.68   L 204.64,32.16   L 205.6,32.64   L 206.48,33.2   L 208,34.72  z    M 195.6,43.84   L 195.68,45.92   L 196.48,49.2   L 197.28,50.48   L 198.24,51.6   L 200.64,52.8   L 202.08,52.88   L 203.6,52.8   L 205.92,51.6   L 206.88,50.48   L 207.68,49.2   L 208.56,45.92   L 208.64,43.84   L 208.56,41.84   L 207.68,38.48   L 206.88,37.2   L 205.92,36.16   L 203.6,34.88   L 202.08,34.8   L 200.64,34.88   L 198.24,36.16   L 197.28,37.2   L 196.48,38.48   L 195.68,41.84  z   "
     id="path63" />
  <path
     style="fill:#000000;fill-rule:evenodd;fill-opacity:1;stroke:none;"
     d="  M 240.32,42.88   L 240.32,44.72   L 222.72,44.72   L 222.88,46.64   L 224.08,49.68   L 225.04,50.8   L 226.24,51.76   L 229.2,52.8   L 231.04,52.88   L 233.2,52.8   L 235.28,52.32   L 237.36,51.68   L 239.44,50.72   L 239.44,54.32   L 237.36,55.12   L 235.2,55.68   L 233.04,56   L 230.8,56.08   L 229.44,56.08   L 226.96,55.68   L 224.72,54.88   L 222.8,53.6   L 221.92,52.88   L 221.2,52   L 219.92,50.08   L 219.12,47.92   L 218.72,45.44   L 218.72,44.08   L 218.72,42.64   L 219.12,40.08   L 219.92,37.84   L 221.04,35.84   L 221.76,34.96   L 222.56,34.16   L 224.4,32.88   L 226.48,32.08   L 228.88,31.6   L 230.16,31.6   L 231.28,31.6   L 233.44,32   L 235.28,32.8   L 236.88,33.92   L 237.6,34.64   L 238.24,35.44   L 239.28,37.2   L 239.92,39.28   L 240.32,41.6  z    M 236.48,41.76   L 236.4,40.24   L 235.52,37.76   L 234.72,36.72   L 233.84,35.84   L 231.52,34.96   L 230.16,34.88   L 228.64,34.96   L 226.08,35.84   L 225.04,36.64   L 224.16,37.6   L 223.04,40.16   L 222.8,41.76  z   "
     id="path65" />
  <path
     style="fill:#000000;fill-rule:evenodd;fill-opacity:1;stroke:none;"
     d="  M 246.64,23.12   L 250.48,23.12   L 250.48,55.52   L 246.64,55.52   L 246.64,23.12  z "
     id="path67" />
  <path
     style="fill:#ffff98;fill-rule:evenodd;fill-opacity:1;stroke:#d6b14d;stroke-width:4px;stroke-linecap:butt;stroke-linejoin:round;stroke-miterlimit:5;stroke-dasharray:none;stroke-opacity:1;"
     d="  M 381.28,2   L 682.8,2   L 682.8,92.56   L 381.28,92.56   L 381.28,2  z "
     id="path69" />
  <path
     style="fill:#000000;fill-rule:evenodd;fill-opacity:1;stroke:none;"
     d="  M 501.04,46   L 501.04,31.84   L 504.88,31.84   L 504.88,45.84   L 504.88,47.44   L 505.52,49.92   L 506.16,50.8   L 506.8,51.6   L 508.8,52.4   L 510,52.48   L 511.52,52.4   L 513.92,51.36   L 514.88,50.48   L 515.76,49.44   L 516.64,46.72   L 516.72,45.12   L 516.72,31.84   L 520.56,31.84   L 520.56,55.2   L 516.72,55.2   L 516.72,51.6   L 516,52.64   L 514.4,54.24   L 513.44,54.8   L 512.56,55.28   L 510.4,55.76   L 509.2,55.76   L 507.28,55.68   L 504.88,54.8   L 503.6,53.92   L 503.12,53.28   L 502.16,51.92   L 501.12,48.32  z   "
     id="path71" />
  <path
     style="fill:#000000;fill-rule:evenodd;fill-opacity:1;stroke:none;"
     d="  M 532.24,25.2   L 532.24,31.84   L 540.16,31.84   L 540.16,34.8   L 532.24,34.8   L 532.24,47.52   L 532.24,48.88   L 532.64,50.64   L 533.04,51.2   L 533.44,51.52   L 535.04,51.92   L 536.16,52   L 540.16,52   L 540.16,55.2   L 536.16,55.2   L 534.08,55.12   L 531.04,54.32   L 530.08,53.52   L 529.28,52.56   L 528.48,49.6   L 528.4,47.52   L 528.4,34.8   L 525.6,34.8   L 525.6,31.84   L 528.4,31.84   L 528.4,25.2   L 532.24,25.2  z "
     id="path73" />
  <path
     style="fill:#000000;fill-rule:evenodd;fill-opacity:1;stroke:none;"
     d="  M 545.2,31.84   L 549.04,31.84   L 549.04,55.2   L 545.2,55.2  z    M 545.2,22.8   L 549.04,22.8   L 549.04,27.6   L 545.2,27.6  z   "
     id="path75" />
  <path
     style="fill:#000000;fill-rule:evenodd;fill-opacity:1;stroke:none;"
     d="  M 557.04,22.8   L 560.88,22.8   L 560.88,55.2   L 557.04,55.2   L 557.04,22.8  z "
     id="path77" />
  <path
     style="fill:none;stroke:#000000;stroke-width:4px;stroke-linecap:square;stroke-linejoin:round;stroke-miterlimit:5;stroke-dasharray:none;stroke-opacity:1;"
     d="  M 190.8,171.12   L 190.8,105.12  "
     id="path79" />
  <path
     style="fill:#000000;fill-rule:evenodd;fill-opacity:1;stroke:#000000;stroke-width:2.1600001px;stroke-linecap:butt;stroke-linejoin:miter;stroke-miterlimit:4;stroke-dasharray:none;stroke-opacity:1;"
     d="  M 190.8,95.92   L 198.8,109.76   L 182.8,109.76   L 190.8,95.92  z "
     id="path81" />
  <path
     style="fill:none;stroke:#000000;stroke-width:4px;stroke-linecap:square;stroke-linejoin:round;stroke-miterlimit:4;stroke-dasharray:none;stroke-opacity:1;"
     d="  M 338.96,216.96   L 356.32,216.88   L 373.68,216.72  "
     id="path83" />
  <path
     style="fill:#000000;fill-rule:evenodd;fill-opacity:1;stroke:#000000;stroke-width:2.1600001px;stroke-linecap:butt;stroke-linejoin:miter;stroke-miterlimit:4;stroke-dasharray:none;stroke-opacity:1;"
     d="  M 382.88,216.64   L 369.12,224.72   L 369.04,208.72   L 382.88,216.64  z "
     id="path85" />
  <path
     style="fill:none;stroke:#000000;stroke-width:4px;stroke-linecap:square;stroke-linejoin:round;stroke-miterlimit:4;stroke-dasharray:none;stroke-opacity:1;"
     d="  M 536.24,172.48   L 536.24,106.48  "
     id="path87" />
  <path
     style="fill:#000000;fill-rule:evenodd;fill-opacity:1;stroke:#000000;stroke-width:2.1600001px;stroke-linecap:butt;stroke-linejoin:miter;stroke-miterlimit:4;stroke-dasharray:none;stroke-opacity:1;"
     d="  M 536.24,97.28   L 544.24,111.12   L 528.24,111.12   L 536.24,97.28  z "
     id="path89" />
  <path
     style="fill:none;stroke:#000000;stroke-width:4px;stroke-linecap:square;stroke-linejoin:round;stroke-miterlimit:4;stroke-dasharray:none;stroke-opacity:1;"
     d="  M 348.8,48.4   L 370.64,48.4  "
     id="path91" />
  <path
     style="fill:#000000;fill-rule:evenodd;fill-opacity:1;stroke:#000000;stroke-width:2.1600001px;stroke-linecap:butt;stroke-linejoin:miter;stroke-miterlimit:4;stroke-dasharray:none;stroke-opacity:1;"
     d="  M 339.6,48.4   L 353.44,40.4   L 353.44,56.4   L 339.6,48.4  z "
     id="path93" />
  <path
     style="fill:#000000;fill-rule:evenodd;fill-opacity:1;stroke:#000000;stroke-width:2.1600001px;stroke-linecap:butt;stroke-linejoin:miter;stroke-miterlimit:4;stroke-dasharray:none;stroke-opacity:1;"
     d="  M 379.84,48.4   L 366,56.4   L 366,40.4   L 379.84,48.4  z "
     id="path95" />
  <path
     style="fill:none;stroke:#000000;stroke-width:4px;stroke-linecap:square;stroke-linejoin:round;stroke-miterlimit:4;stroke-dasharray:none;stroke-opacity:1;"
     d="  M 344.56,330.72   L 401.92,301.76   L 459.28,272.88  "
     id="path97" />
  <path
     style="fill:#000000;fill-rule:evenodd;fill-opacity:1;stroke:#000000;stroke-width:2.1600001px;stroke-linecap:butt;stroke-linejoin:miter;stroke-miterlimit:4;stroke-dasharray:none;stroke-opacity:1;"
     d="  M 467.52,268.72   L 458.72,282.08   L 451.52,267.84   L 467.52,268.72  z "
     id="path99" />
  <path
     style="fill:none;stroke:#000000;stroke-width:4px;stroke-linecap:square;stroke-linejoin:round;stroke-miterlimit:4;stroke-dasharray:none;stroke-opacity:1;"
     d="  M 157.12,509.92   L 236.48,468.8   L 315.92,427.68  "
     id="path101" />
  <path
     style="fill:#000000;fill-rule:evenodd;fill-opacity:1;stroke:#000000;stroke-width:2.1600001px;stroke-linecap:butt;stroke-linejoin:miter;stroke-miterlimit:4;stroke-dasharray:none;stroke-opacity:1;"
     d="  M 324.16,423.44   L 315.52,436.96   L 308.16,422.72   L 324.16,423.44  z "
     id="path103" />
  <path
     style="fill:none;stroke:#000000;stroke-width:4px;stroke-linecap:square;stroke-linejoin:round;stroke-miterlimit:4;stroke-dasharray:none;stroke-opacity:1;"
     d="  M 528.48,512   L 457.6,470.48   L 386.8,428.96  "
     id="path105" />
  <path
     style="fill:#000000;fill-rule:evenodd;fill-opacity:1;stroke:#000000;stroke-width:2.1600001px;stroke-linecap:butt;stroke-linejoin:miter;stroke-miterlimit:4;stroke-dasharray:none;stroke-opacity:1;"
     d="  M 378.88,424.32   L 394.88,424.4   L 386.8,438.24   L 378.88,424.32  z "
     id="path107" />
</svg>
