<?xml version="1.0" encoding="UTF-8" standalone="no"?>
<!-- Created with Inkscape (http://www.inkscape.org/) -->

<svg
   xmlns:dc="http://purl.org/dc/elements/1.1/"
   xmlns:cc="http://creativecommons.org/ns#"
   xmlns:rdf="http://www.w3.org/1999/02/22-rdf-syntax-ns#"
   xmlns:svg="http://www.w3.org/2000/svg"
   xmlns="http://www.w3.org/2000/svg"
   xmlns:sodipodi="http://sodipodi.sourceforge.net/DTD/sodipodi-0.dtd"
   xmlns:inkscape="http://www.inkscape.org/namespaces/inkscape"
   width="345.97705"
   height="580.38068"
   id="svg2"
   version="1.1"
   inkscape:version="0.92.5 (2060ec1f9f, 2020-04-08)"
   sodipodi:docname="secom-roles.svg">
  <defs
     id="defs4">
    <marker
       inkscape:stockid="DotS"
       orient="auto"
       refY="0"
       refX="0"
       id="DotS"
       style="overflow:visible">
      <path
         id="path4235"
         d="m 1.0453333,0 c 0,0.5888 -0.47786663,1.0666667 -1.06666663,1.0666667 C -0.61013333,1.0666667 -1.088,0.5888 -1.088,0 c 0,-0.5888 0.47786667,-1.0666667 1.06666667,-1.0666667 0.5888,0 1.06666663,0.4778667 1.06666663,1.0666667 z"
         style="fill-rule:evenodd;stroke:#000000;stroke-width:0.21333334pt"
         inkscape:connector-curvature="0" />
    </marker>
    <marker
       inkscape:stockid="DotM"
       orient="auto"
       refY="0"
       refX="0"
       id="DotM"
       style="overflow:visible">
      <path
         id="path4232"
         d="m 2.0906667,0 c 0,1.1776 -0.9557334,2.1333333 -2.13333337,2.1333333 C -1.2202667,2.1333333 -2.176,1.1776 -2.176,0 c 0,-1.1776 0.9557333,-2.1333333 2.13333333,-2.1333333 C 1.1349333,-2.1333333 2.0906667,-1.1776 2.0906667,0 Z"
         style="fill-rule:evenodd;stroke:#000000;stroke-width:0.42666668pt"
         inkscape:connector-curvature="0" />
    </marker>
    <marker
       inkscape:stockid="DotL"
       orient="auto"
       refY="0"
       refX="0"
       id="DotL"
       style="overflow:visible">
      <path
         id="path4229"
         d="m 4.1813333,0 c 0,2.3552 -1.9114666,4.2666667 -4.26666663,4.2666667 C -2.4405333,4.2666667 -4.352,2.3552 -4.352,0 c 0,-2.3552 1.9114667,-4.2666667 4.26666667,-4.2666667 C 2.2698667,-4.2666667 4.1813333,-2.3552 4.1813333,0 Z"
         style="fill-rule:evenodd;stroke:#000000;stroke-width:0.85333335pt"
         inkscape:connector-curvature="0" />
    </marker>
    <marker
       inkscape:stockid="CurveIn"
       orient="auto"
       refY="0"
       refX="0"
       id="CurveIn"
       style="overflow:visible">
      <path
         id="path4352"
         d="m 2.9603155,-3.2292433 c -1.7664,0 -3.19999999,1.4336 -3.19999999,3.20000005 0,1.76639995 1.43359999,3.19999995 3.19999999,3.19999995"
         style="fill:none;fill-rule:evenodd;stroke:#000000;stroke-width:0.64000006pt"
         inkscape:connector-curvature="0" />
    </marker>
    <clipPath
       id="clipPath3963"
       clipPathUnits="userSpaceOnUse">
      <path
         id="path3965"
         d="M 0,143.534 H 660.319 V 0 H 0 Z"
         inkscape:connector-curvature="0" />
    </clipPath>
    <marker
       inkscape:stockid="CurveIn"
       orient="auto"
       refY="0"
       refX="0"
       id="CurveIn-6"
       style="overflow:visible">
      <path
         inkscape:connector-curvature="0"
         id="path4352-5"
         d="m 2.9603155,-3.2292433 c -1.7664,0 -3.19999999,1.4336 -3.19999999,3.20000005 0,1.76639995 1.43359999,3.19999995 3.19999999,3.19999995"
         style="fill:none;stroke:#000000;stroke-width:0.64000006pt" />
    </marker>
    <marker
       inkscape:stockid="CurveIn"
       orient="auto"
       refY="0"
       refX="0"
       id="CurveIn-0"
       style="overflow:visible">
      <path
         inkscape:connector-curvature="0"
         id="path4352-7"
         d="m 2.9603155,-3.2292433 c -1.7664,0 -3.19999999,1.4336 -3.19999999,3.20000005 0,1.76639995 1.43359999,3.19999995 3.19999999,3.19999995"
         style="fill:none;stroke:#000000;stroke-width:0.64000006pt" />
    </marker>
    <marker
       inkscape:stockid="CurveIn"
       orient="auto"
       refY="0"
       refX="0"
       id="CurveIn-7"
       style="overflow:visible">
      <path
         inkscape:connector-curvature="0"
         id="path4352-4"
         d="m 2.9603155,-3.2292433 c -1.7664,0 -3.19999999,1.4336 -3.19999999,3.20000005 0,1.76639995 1.43359999,3.19999995 3.19999999,3.19999995"
         style="fill:none;stroke:#000000;stroke-width:0.64000006pt" />
    </marker>
    <marker
       inkscape:stockid="CurveIn"
       orient="auto"
       refY="0"
       refX="0"
       id="CurveIn-8"
       style="overflow:visible">
      <path
         inkscape:connector-curvature="0"
         id="path4352-49"
         d="m 2.9603155,-3.2292433 c -1.7664,0 -3.19999999,1.4336 -3.19999999,3.20000005 0,1.76639995 1.43359999,3.19999995 3.19999999,3.19999995"
         style="fill:none;stroke:#000000;stroke-width:0.64000006pt" />
    </marker>
    <marker
       inkscape:stockid="CurveIn"
       orient="auto"
       refY="0"
       refX="0"
       id="CurveIn-82"
       style="overflow:visible">
      <path
         inkscape:connector-curvature="0"
         id="path4352-45"
         d="m 2.9603155,-3.2292433 c -1.7664,0 -3.19999999,1.4336 -3.19999999,3.20000005 0,1.76639995 1.43359999,3.19999995 3.19999999,3.19999995"
         style="fill:none;stroke:#000000;stroke-width:0.64000006pt" />
    </marker>
    <marker
       inkscape:stockid="CurveIn"
       orient="auto"
       refY="0"
       refX="0"
       id="CurveIn-2"
       style="overflow:visible">
      <path
         inkscape:connector-curvature="0"
         id="path4352-74"
         d="m 2.9603155,-3.2292433 c -1.7664,0 -3.19999999,1.4336 -3.19999999,3.20000005 0,1.76639995 1.43359999,3.19999995 3.19999999,3.19999995"
         style="fill:none;stroke:#000000;stroke-width:0.64000006pt" />
    </marker>
    <marker
       inkscape:stockid="CurveIn"
       orient="auto"
       refY="0"
       refX="0"
       id="CurveIn-2-4"
       style="overflow:visible">
      <path
         inkscape:connector-curvature="0"
         id="path4352-74-4"
         d="m 2.9603155,-3.2292433 c -1.7664,0 -3.19999999,1.4336 -3.19999999,3.20000005 0,1.76639995 1.43359999,3.19999995 3.19999999,3.19999995"
         style="fill:none;stroke:#000000;stroke-width:0.64000006pt" />
    </marker>
    <marker
       inkscape:stockid="DotS"
       orient="auto"
       refY="0"
       refX="0"
       id="DotS-5"
       style="overflow:visible">
      <path
         inkscape:connector-curvature="0"
         id="path4235-8"
         d="m 1.0453333,0 c 0,0.5888 -0.47786663,1.0666667 -1.06666663,1.0666667 C -0.61013333,1.0666667 -1.088,0.5888 -1.088,0 c 0,-0.5888 0.47786667,-1.0666667 1.06666667,-1.0666667 0.5888,0 1.06666663,0.4778667 1.06666663,1.0666667 z"
         style="fill-rule:evenodd;stroke:#000000;stroke-width:0.21333334pt" />
    </marker>
  </defs>
  <sodipodi:namedview
     id="base"
     pagecolor="#ffffff"
     bordercolor="#666666"
     borderopacity="1.0"
     inkscape:pageopacity="0.0"
     inkscape:pageshadow="2"
     inkscape:zoom="1.2568487"
     inkscape:cx="94.9731"
     inkscape:cy="298.38709"
     inkscape:document-units="mm"
     inkscape:current-layer="layer1"
     showgrid="false"
     inkscape:window-width="1920"
     inkscape:window-height="1043"
     inkscape:window-x="1920"
     inkscape:window-y="120"
     inkscape:window-maximized="1"
     fit-margin-top="10"
     fit-margin-left="10"
     fit-margin-right="10"
     fit-margin-bottom="10" />
  <metadata
     id="metadata7">
    <rdf:RDF>
      <cc:Work
         rdf:about="">
        <dc:format>image/svg+xml</dc:format>
        <dc:type
           rdf:resource="http://purl.org/dc/dcmitype/StillImage" />
        <dc:title />
      </cc:Work>
    </rdf:RDF>
  </metadata>
  <g
     inkscape:label="Layer 1"
     inkscape:groupmode="layer"
     id="layer1"
     transform="translate(1.4451348,-293.24331)">
    <ellipse
       ry="38.724407"
       rx="7.0903845"
       cy="-121.45518"
       cx="610.96454"
       style="fill:#ffffff;fill-opacity:1;fill-rule:nonzero;stroke:#000000;stroke-width:3.77952743;stroke-linecap:butt;stroke-linejoin:miter;stroke-miterlimit:4;stroke-dasharray:none;stroke-dashoffset:0;stroke-opacity:1"
       id="path4126-3"
       transform="rotate(90)" />
    <rect
       style="fill:none;stroke:#000000;stroke-width:3.77952743;stroke-linecap:butt;stroke-linejoin:miter;stroke-miterlimit:4;stroke-dasharray:none;stroke-dashoffset:0;stroke-opacity:1"
       id="rect3023"
       width="318.72519"
       height="267.65228"
       x="11.111296"
       y="397.30734" />
    <rect
       style="fill:#ffffff;fill-opacity:1;stroke:#000000;stroke-width:3.77952743;stroke-linecap:butt;stroke-linejoin:miter;stroke-miterlimit:4;stroke-dasharray:none;stroke-dashoffset:0;stroke-opacity:1"
       id="rect3797"
       width="40.360649"
       height="145.08017"
       x="100.30788"
       y="305.79974" />
    <text
       xml:space="preserve"
       style="font-style:normal;font-variant:normal;font-weight:normal;font-stretch:normal;font-size:12.80000019px;line-height:0%;font-family:Ubuntu;-inkscape-font-specification:Ubuntu;letter-spacing:0px;word-spacing:0px;fill:#00ff00;fill-opacity:1;stroke:none;stroke-width:1.06666672"
       x="10.261475"
       y="374.69141"
       id="text3799"><tspan
         sodipodi:role="line"
         id="tspan3801"
         x="10.261475"
         y="374.69141"
         style="font-size:21.33333397px;line-height:1.25;fill:#00ff00;stroke-width:1.06666672">SEM</tspan></text>
    <text
       xml:space="preserve"
       style="font-style:normal;font-variant:normal;font-weight:normal;font-stretch:normal;font-size:12.80000019px;line-height:0%;font-family:Ubuntu;-inkscape-font-specification:Ubuntu;letter-spacing:0px;word-spacing:0px;fill:#000000;fill-opacity:1;stroke:none;stroke-width:1.06666672"
       x="188.86543"
       y="603.33679"
       id="text3823"><tspan
         sodipodi:role="line"
         id="tspan3825"
         x="188.86543"
         y="603.33679"
         style="font-size:21.33333397px;line-height:1.25;stroke-width:1.06666672">ebic-detector</tspan></text>
    <text
       xml:space="preserve"
       style="font-style:normal;font-variant:normal;font-weight:normal;font-stretch:normal;font-size:12.80000019px;line-height:0%;font-family:Ubuntu;-inkscape-font-specification:Ubuntu;letter-spacing:0px;word-spacing:0px;fill:#000000;fill-opacity:1;stroke:none;stroke-width:1.06666672"
       x="197.17889"
       y="447.45505"
       id="text3827"><tspan
         sodipodi:role="line"
         id="tspan3829"
         x="197.17889"
         y="447.45505"
         style="font-size:21.33333397px;line-height:1.25;stroke-width:1.06666672">se-detector</tspan></text>
    <path
       style="fill:none;stroke:#000000;stroke-width:3.77952743;stroke-linecap:butt;stroke-linejoin:miter;stroke-miterlimit:4;stroke-dasharray:none;stroke-opacity:1"
       d="M 81.804502,567.47421 H 160.34414"
       id="path4130"
       inkscape:connector-curvature="0" />
    <text
       xml:space="preserve"
       style="font-style:normal;font-variant:normal;font-weight:normal;font-stretch:normal;font-size:12.80000019px;line-height:0%;font-family:Ubuntu;-inkscape-font-specification:Ubuntu;letter-spacing:0px;word-spacing:0px;fill:#000000;fill-opacity:1;stroke:none;stroke-width:1.06666672"
       x="147.16914"
       y="585.95837"
       id="text4132"><tspan
         sodipodi:role="line"
         id="tspan4134"
         x="147.16914"
         y="585.95837"
         style="font-size:21.33333397px;line-height:1.25;stroke-width:1.06666672">stage</tspan></text>
    <path
       style="fill:none;stroke:#ff0000;stroke-width:3.02362204;stroke-linecap:butt;stroke-linejoin:miter;stroke-miterlimit:4;stroke-dasharray:9.07086614, 9.07086614;stroke-dashoffset:0;stroke-opacity:1"
       d="M 121.60641,319.85616 V 567.47421"
       id="path4152"
       inkscape:connector-curvature="0" />
    <path
       style="fill:none;stroke:#000000;stroke-width:3.77952743;stroke-linecap:butt;stroke-linejoin:miter;stroke-miterlimit:4;stroke-dasharray:none;stroke-opacity:1;marker-end:url(#DotS)"
       d="m 195.11892,397.06396 v 55.53591"
       id="path5798"
       inkscape:connector-curvature="0" />
    <text
       xml:space="preserve"
       style="font-style:normal;font-variant:normal;font-weight:normal;font-stretch:normal;font-size:12.80000019px;line-height:0%;font-family:Ubuntu;-inkscape-font-specification:Ubuntu;letter-spacing:0px;word-spacing:0px;fill:#000000;fill-opacity:1;stroke:none;stroke-width:1.06666672px;stroke-linecap:butt;stroke-linejoin:miter;stroke-opacity:1"
       x="507.50845"
       y="445.65787"
       id="text4363"><tspan
         sodipodi:role="line"
         id="tspan4365"
         x="507.50845"
         y="445.65787"
         style="font-size:21.33333397px;line-height:1.25;stroke-width:1.06666672px"> </tspan></text>
    <text
       xml:space="preserve"
       style="font-style:normal;font-variant:normal;font-weight:normal;font-stretch:normal;font-size:12.80000019px;line-height:0%;font-family:Ubuntu;-inkscape-font-specification:Ubuntu;letter-spacing:0px;word-spacing:0px;fill:#000000;fill-opacity:1;stroke:none;stroke-width:1.06666672"
       x="59.820965"
       y="469.81387"
       id="text3827-3"><tspan
         sodipodi:role="line"
         id="tspan3829-6"
         x="59.820965"
         y="469.81387"
         style="font-size:21.33333397px;line-height:1.25;stroke-width:1.06666672">bs-detector</tspan></text>
    <text
       xml:space="preserve"
       style="font-style:normal;font-variant:normal;font-weight:normal;font-stretch:normal;font-size:12.80000019px;line-height:0%;font-family:Ubuntu;-inkscape-font-specification:Ubuntu;letter-spacing:0px;word-spacing:0px;fill:#000000;fill-opacity:1;stroke:none;stroke-width:1.06666672"
       x="156.08879"
       y="334.70535"
       id="text3827-7"><tspan
         sodipodi:role="line"
         id="tspan3829-5"
         x="156.08879"
         y="334.70535"
         style="font-size:21.33333397px;line-height:1.25;stroke-width:1.06666672">e-beam</tspan></text>
    <path
       id="path4539"
       d="m 327.64626,703.27728 v 2.21178 h -4.09147 c 0.0322,-0.35949 0.0612,-0.72221 0.0612,-1.09783 0,-0.38206 -0.0274,-0.74801 -0.0564,-1.11234 h 4.08663 z m -17.16544,-10.56396 v -3.15485 h 2.21017 v 3.16613 c -0.39013,-0.0354 -0.78026,-0.0564 -1.17038,-0.0564 -0.34659,0 -0.6932,0.0161 -1.03979,0.0451 z m 8.9003,2.48905 2.53097,-2.80986 1.6427,1.4799 -2.58416,2.86466 c -0.40302,-0.47879 -0.95596,-1.08332 -1.58951,-1.5347 z m -17.31053,1.5347 -2.58416,-2.86466 1.64271,-1.4799 2.53097,2.80986 c -0.63194,0.45138 -1.1865,1.05591 -1.58952,1.5347 z m -2.57449,8.75199 h -4.09146 v -2.21178 h 4.08662 c -0.029,0.36433 -0.0564,0.73189 -0.0564,1.11395 0,0.37562 0.029,0.73834 0.0612,1.09783 z m 15.25351,14.69895 h -6.44832 c -0.44494,0 -0.80605,0.36111 -0.80605,0.80604 0,0.44494 0.36111,0.80605 0.80605,0.80605 h 6.44832 c 0.44494,0 0.80604,-0.36111 0.80604,-0.80605 0,-0.44493 -0.3611,-0.80604 -0.80604,-0.80604 z m 0,3.22416 h -6.44832 c -0.44494,0 -0.80605,0.36111 -0.80605,0.80605 0,0.44493 0.36111,0.80604 0.80605,0.80604 h 6.44832 c 0.44494,0 0.80604,-0.36111 0.80604,-0.80604 0,-0.44494 -0.3611,-0.80605 -0.80604,-0.80605 z m 0.40302,3.22416 h -7.25437 l 1.91516,1.26065 c 0.24825,0.22247 0.61259,0.35144 0.99143,0.35144 h 1.44281 c 0.37723,0 0.74317,-0.12897 0.99143,-0.35144 z m 6.0453,-22.2451 c 0,5.75352 -5.18123,9.64508 -5.18123,14.18471 h -3.20643 c -0.005,-2.99526 1.40252,-5.46335 2.7744,-7.84601 1.2268,-2.136 2.3891,-4.15432 2.3891,-6.3387 0,-4.17852 -3.34507,-6.08077 -6.45316,-6.08077 -3.10326,0 -6.44349,1.90225 -6.44349,6.08077 0,2.18438 1.16231,4.2027 2.38911,6.3387 1.37188,2.38266 2.78084,4.85075 2.77278,7.84601 h -3.20482 c 0,-4.53963 -5.18123,-8.43119 -5.18123,-14.18471 0,-6.00178 4.83302,-9.30493 9.66765,-9.30493 4.83785,0 9.67732,3.30638 9.67732,9.30493 z"
       inkscape:connector-curvature="0"
       style="stroke-width:1.06666672" />
    <text
       xml:space="preserve"
       style="font-style:normal;font-variant:normal;font-weight:normal;font-stretch:normal;font-size:12.80000019px;line-height:0%;font-family:Ubuntu;-inkscape-font-specification:Ubuntu;letter-spacing:0px;word-spacing:0px;fill:#000000;fill-opacity:1;stroke:none;stroke-width:1.06666672"
       x="288.72696"
       y="751.63251"
       id="text3819-2"><tspan
         sodipodi:role="line"
         id="tspan3821-7"
         x="288.72696"
         y="751.63251"
         style="font-size:21.33333397px;line-height:1.25;stroke-width:1.06666672">light</tspan></text>
    <rect
       style="fill:#ffffff;fill-opacity:1;stroke:#000000;stroke-width:3.77952743;stroke-linecap:butt;stroke-linejoin:miter;stroke-miterlimit:4;stroke-dasharray:none;stroke-dashoffset:0;stroke-opacity:1"
       id="rect3797-6-9"
       width="42.542286"
       height="49.08728"
       x="98.921539"
       y="811.98029" />
    <ellipse
       style="fill:#ffffff;fill-opacity:1;fill-rule:nonzero;stroke:#000000;stroke-width:3.16040802;stroke-linecap:butt;stroke-linejoin:miter;stroke-miterlimit:4;stroke-dasharray:none;stroke-dashoffset:0;stroke-opacity:1"
       id="path4126-36-3"
       cx="-760.16071"
       cy="122.27779"
       rx="7.3999438"
       ry="25.944025"
       transform="rotate(-90)" />
    <path
       style="fill:none;stroke:#ff0000;stroke-width:3.02362204;stroke-linecap:butt;stroke-linejoin:miter;stroke-miterlimit:4;stroke-dasharray:3.02362213, 6.04724427;stroke-dashoffset:0;stroke-opacity:1"
       d="M 121.66849,568.89338 V 837.23715"
       id="path4154-8"
       inkscape:connector-curvature="0"
       sodipodi:nodetypes="cc" />
    <text
       xml:space="preserve"
       style="font-style:normal;font-variant:normal;font-weight:normal;font-stretch:normal;font-size:12.80000019px;line-height:0%;font-family:Ubuntu;-inkscape-font-specification:Ubuntu;letter-spacing:0px;word-spacing:0px;fill:#000000;fill-opacity:1;stroke:none;stroke-width:1.06666672"
       x="156.08879"
       y="355.04813"
       id="text3827-7-2"><tspan
         sodipodi:role="line"
         id="tspan3829-5-6"
         x="156.08879"
         y="355.04813"
         style="font-size:21.33333397px;line-height:1.25;stroke-width:1.06666672">ebeam-focus</tspan></text>
    <text
       xml:space="preserve"
       style="font-style:normal;font-variant:normal;font-weight:normal;font-stretch:normal;font-size:12.80000019px;line-height:0%;font-family:Ubuntu;-inkscape-font-specification:Ubuntu;letter-spacing:0px;word-spacing:0px;fill:#000000;fill-opacity:1;stroke:none;stroke-width:1.06666672"
       x="48.923279"
       y="601.7832"
       id="text3819-6"><tspan
         sodipodi:role="line"
         id="tspan3821-1"
         x="48.923279"
         y="601.7832"
         style="font-size:21.33333397px;line-height:1.25;stroke-width:1.06666672">lens</tspan></text>
    <text
       xml:space="preserve"
       style="font-style:normal;font-variant:normal;font-weight:normal;font-stretch:normal;font-size:12.80000019px;line-height:0%;font-family:Ubuntu;-inkscape-font-specification:Ubuntu;letter-spacing:0px;word-spacing:0px;fill:#000000;fill-opacity:1;stroke:none;stroke-width:1.06666672"
       x="18.374578"
       y="618.73212"
       id="text4132-7"><tspan
         sodipodi:role="line"
         id="tspan4134-3"
         x="18.374578"
         y="618.73212"
         style="font-size:21.33333397px;line-height:1.25;stroke-width:1.06666672">focus</tspan></text>
    <path
       id="path4539-6"
       d="m 179.18406,533.81716 v 2.21178 h -4.09146 c 0.0322,-0.35949 0.0612,-0.72221 0.0612,-1.09783 0,-0.38205 -0.0274,-0.74801 -0.0564,-1.11234 h 4.08662 z m -17.16544,-10.56395 v -3.15485 h 2.21017 v 3.16612 c -0.39012,-0.0354 -0.78026,-0.0564 -1.17038,-0.0564 -0.34659,0 -0.69319,0.0161 -1.03979,0.0451 z m 8.9003,2.48904 2.53097,-2.80986 1.64271,1.4799 -2.58416,2.86466 c -0.40303,-0.47878 -0.95597,-1.08332 -1.58952,-1.5347 z m -17.31053,1.5347 -2.58416,-2.86466 1.64271,-1.4799 2.53097,2.80986 c -0.63194,0.45138 -1.1865,1.05592 -1.58952,1.5347 z m -2.57449,8.75199 h -4.09146 v -2.21178 h 4.08663 c -0.029,0.36433 -0.0564,0.7319 -0.0564,1.11395 0,0.37562 0.029,0.73834 0.0612,1.09783 z m 15.25351,14.69895 h -6.44832 c -0.44494,0 -0.80604,0.36111 -0.80604,0.80604 0,0.44494 0.3611,0.80605 0.80604,0.80605 h 6.44832 c 0.44494,0 0.80604,-0.36111 0.80604,-0.80605 0,-0.44493 -0.3611,-0.80604 -0.80604,-0.80604 z m 0,3.22416 h -6.44832 c -0.44494,0 -0.80604,0.36111 -0.80604,0.80605 0,0.44493 0.3611,0.80604 0.80604,0.80604 h 6.44832 c 0.44494,0 0.80604,-0.36111 0.80604,-0.80604 0,-0.44494 -0.3611,-0.80605 -0.80604,-0.80605 z m 0.40302,3.22416 h -7.25437 l 1.91516,1.26065 c 0.24826,0.22247 0.61259,0.35144 0.99144,0.35144 h 1.4428 c 0.37723,0 0.74317,-0.12897 0.99144,-0.35144 z m 6.0453,-22.2451 c 0,5.75352 -5.18122,9.64508 -5.18122,14.18471 h -3.20644 c -0.005,-2.99525 1.40252,-5.46335 2.7744,-7.84601 1.2268,-2.136 2.3891,-4.15432 2.3891,-6.3387 0,-4.17851 -3.34506,-6.08076 -6.45316,-6.08076 -3.10325,0 -6.44349,1.90225 -6.44349,6.08076 0,2.18438 1.16232,4.2027 2.38911,6.3387 1.37188,2.38266 2.78084,4.85076 2.77278,7.84601 h -3.20482 c 0,-4.53963 -5.18123,-8.43119 -5.18123,-14.18471 0,-6.00178 4.83303,-9.30492 9.66765,-9.30492 4.83786,0 9.67732,3.30638 9.67732,9.30492 z"
       inkscape:connector-curvature="0"
       style="stroke-width:1.06666672" />
    <text
       xml:space="preserve"
       style="font-style:normal;font-variant:normal;font-weight:normal;font-stretch:normal;font-size:12.80000019px;line-height:0%;font-family:Ubuntu;-inkscape-font-specification:Ubuntu;letter-spacing:0px;word-spacing:0px;fill:#000000;fill-opacity:1;stroke:none;stroke-width:1.06666672"
       x="179.27193"
       y="542.56512"
       id="text3819-2-5"><tspan
         sodipodi:role="line"
         id="tspan3821-7-6"
         x="179.27193"
         y="542.56512"
         style="font-size:21.33333397px;line-height:1.25;stroke-width:1.06666672">backlight</tspan></text>
    <path
       style="fill:none;stroke:#000000;stroke-width:3.77952743;stroke-linecap:butt;stroke-linejoin:miter;stroke-miterlimit:4;stroke-dasharray:none;stroke-opacity:1"
       d="M 142.50719,740.92972 99.419477,697.84199"
       id="path4148-2-0"
       inkscape:connector-curvature="0" />
    <path
       style="fill:none;stroke:#ff0000;stroke-width:3.02362204;stroke-linecap:butt;stroke-linejoin:miter;stroke-miterlimit:4;stroke-dasharray:3.02362213, 6.04724427;stroke-dashoffset:0;stroke-opacity:1"
       d="M 119.85872,715.27305 H 292.30126"
       id="path4154-8-3"
       inkscape:connector-curvature="0"
       sodipodi:nodetypes="cc" />
    <text
       xml:space="preserve"
       style="font-style:normal;font-variant:normal;font-weight:normal;font-stretch:normal;font-size:12.80000019px;line-height:0%;font-family:Ubuntu;-inkscape-font-specification:Ubuntu;letter-spacing:0px;word-spacing:0px;fill:#000000;fill-opacity:1;stroke:none;stroke-width:1.06666672"
       x="46.273823"
       y="637.81122"
       id="text4132-7-9"><tspan
         sodipodi:role="line"
         id="tspan4134-3-4"
         x="46.273823"
         y="637.81122"
         style="font-size:21.33333397px;line-height:1.25;stroke-width:1.06666672">align</tspan></text>
    <text
       xml:space="preserve"
       style="font-style:normal;font-variant:normal;font-weight:normal;font-stretch:normal;font-size:12.80000019px;line-height:0%;font-family:Ubuntu;-inkscape-font-specification:Ubuntu;letter-spacing:0px;word-spacing:0px;fill:#000000;fill-opacity:1;stroke:none;stroke-width:1.06666672"
       x="146.02437"
       y="858.66235"
       id="text3827-7-8"><tspan
         sodipodi:role="line"
         id="tspan3829-5-1"
         x="146.02437"
         y="858.66235"
         style="font-size:21.33333397px;line-height:1.25;stroke-width:1.06666672">ccd</tspan></text>
    <text
       xml:space="preserve"
       style="font-style:normal;font-variant:normal;font-weight:normal;font-stretch:normal;font-size:12.80000019px;line-height:0%;font-family:Ubuntu;-inkscape-font-specification:Ubuntu;letter-spacing:0px;word-spacing:0px;fill:#00ff00;fill-opacity:1;stroke:none;stroke-width:1.06666672"
       x="149.30025"
       y="796.25519"
       id="text3799-2"><tspan
         sodipodi:role="line"
         id="tspan3801-9"
         x="149.30025"
         y="796.25519"
         style="font-size:21.33333397px;line-height:1.25;fill:#00ff00;stroke-width:1.06666672">Optical microscope</tspan></text>
    <text
       xml:space="preserve"
       style="font-style:normal;font-variant:normal;font-weight:normal;font-stretch:normal;font-size:12.80000019px;line-height:0%;font-family:Ubuntu;-inkscape-font-specification:Ubuntu;letter-spacing:0px;word-spacing:0px;fill:#000000;fill-opacity:1;stroke:none;stroke-width:1.06666672"
       x="43.895077"
       y="766.35236"
       id="text3827-7-8-3"><tspan
         sodipodi:role="line"
         id="tspan3829-5-1-9"
         x="43.895077"
         y="766.35236"
         style="font-size:21.33333397px;line-height:1.25;stroke-width:1.06666672">filter</tspan></text>
  </g>
</svg>
