<svg xmlns="http://www.w3.org/2000/svg" viewBox="0 0 596.66 166.36"><defs><style>.cls-1{fill:#2a6ea3;}</style></defs><title>Delmic_Black+Blue(preferred)</title><g id="Layer_2" data-name="Layer 2"><g id="Layer_1-2" data-name="Layer 1"><path d="M469.62,118.05c.27-27.69,21-48.44,50.57-46.95,16,.8,26.22,7.37,32.2,14.67a2.26,2.26,0,0,1-.25,3l-12.26,11.52a2.31,2.31,0,0,1-3.36-.29c-4.28-5.09-10.3-7.76-17.65-7.76-14.48,0-24.63,10.53-24.63,26.32s10.15,26.5,24.63,26.5A22.52,22.52,0,0,0,536.64,137a2.23,2.23,0,0,1,3.22-.13l12.28,11.53a2.27,2.27,0,0,1,.25,3.06c-6.28,7.69-17.26,14.91-34.65,14.91C489.73,166.36,469.35,146.35,469.62,118.05Z"/><path d="M68.24,161.82v-6.33a1.13,1.13,0,0,0-2-.73,34.63,34.63,0,0,1-26,11.58C17.48,166.34,0,149.05,0,118.59,0,89.08,17.11,71,40.23,71A34.36,34.36,0,0,1,66.29,82.58a1.13,1.13,0,0,0,1.95-.78V41a2.26,2.26,0,0,1,2.27-2.27H90A2.26,2.26,0,0,1,92.3,41V161.82A2.27,2.27,0,0,1,90,164.09H70.51A2.27,2.27,0,0,1,68.24,161.82Zm0-28.55V104.1a4.33,4.33,0,0,0-.87-2.69C63.12,96,55.11,92.27,47.75,92.27,34,92.27,24.63,103,24.63,118.59c0,15.79,9.4,26.51,23.12,26.51,7.36,0,15.37-3.76,19.62-9.14A4.31,4.31,0,0,0,68.24,133.27Z"/><path d="M110.17,118.59c0-26.32,19.55-47.56,47-47.56,27.26,0,45.5,20.31,45.5,49.82l0,3.4a2.26,2.26,0,0,1-2.26,2.24H136.56a1.15,1.15,0,0,0-1.14,1.36c2.2,10.47,11.1,18.94,25.88,18.94,7,0,16.26-2.62,22.28-7.29a2.23,2.23,0,0,1,3.2.55l8.15,12a2.28,2.28,0,0,1-.39,3c-9.06,7.4-22.55,11.26-35.87,11.26C131,166.34,110.17,147.73,110.17,118.59Zm47-28c-14.14,0-20.61,9.38-22,18.07a1.15,1.15,0,0,0,1.14,1.3h42.14a1.15,1.15,0,0,0,1.15-1.28C178.36,100.28,172.19,90.58,157.16,90.58Z"/><path d="M220,161.82V41a2.26,2.26,0,0,1,2.26-2.27h19.34A2.26,2.26,0,0,1,243.83,41V161.82a2.27,2.27,0,0,1-2.27,2.27H222.22A2.27,2.27,0,0,1,220,161.82Z"/><path d="M382.39,164.09a2.27,2.27,0,0,1-2.26-2.27V106.75c0-8.46-3.77-14.48-13.54-14.48-7.77,0-14.27,4.76-17.9,9.32a4.39,4.39,0,0,0-.9,2.73v57.5a2.27,2.27,0,0,1-2.27,2.27H326a2.27,2.27,0,0,1-2.26-2.27V106.75c0-8.46-3.76-14.48-13.54-14.48-7.58,0-14.06,4.74-17.83,9.3a4.38,4.38,0,0,0-1,2.81v57.44a2.27,2.27,0,0,1-2.26,2.27H269.79a2.27,2.27,0,0,1-2.27-2.27V75.56a2.26,2.26,0,0,1,2.27-2.27h19.34a2.26,2.26,0,0,1,2.26,2.27v6.38a1.13,1.13,0,0,0,1.94.79C298.47,77.57,309,71,321.1,71c12.44,0,20.8,5.39,24.46,14.35a1.12,1.12,0,0,0,2,.27,39.25,39.25,0,0,1,30-14.62c16.73,0,26.7,8.84,26.7,27.45v63.34a2.27,2.27,0,0,1-2.27,2.27Z"/><path d="M427.88,161.82V93a2.27,2.27,0,0,1,2.27-2.26h19.34A2.27,2.27,0,0,1,451.76,93v68.81a2.27,2.27,0,0,1-2.27,2.27H430.15A2.27,2.27,0,0,1,427.88,161.82Z"/><path class="cls-1" d="M595.53,0h-82a4.54,4.54,0,0,0-3.27,1.4l-65,67.9a1.13,1.13,0,0,0,1.3,1.81L596,2.16A1.13,1.13,0,0,0,595.53,0Z"/><circle cx="432.81" cy="68.43" r="4.78"/><circle cx="421.79" cy="57.39" r="4.78"/><circle cx="410.77" cy="57.39" r="4.78"/><circle cx="410.77" cy="46.35" r="4.78"/><circle cx="399.75" cy="46.35" r="4.78"/><circle cx="388.73" cy="46.35" r="4.78"/><circle cx="399.75" cy="35.31" r="4.78"/><circle cx="388.73" cy="35.31" r="4.78"/><circle cx="377.72" cy="35.31" r="4.78"/><circle cx="366.7" cy="35.31" r="4.78"/><circle cx="388.73" cy="24.27" r="4.78"/><circle cx="377.72" cy="24.27" r="4.78"/><circle cx="366.7" cy="24.27" r="4.78"/><circle cx="355.68" cy="24.27" r="4.78"/><circle cx="344.66" cy="24.27" r="4.78"/></g></g></svg>