<?xml version="1.0" encoding="UTF-8" standalone="no"?>
<!-- Created with Inkscape (http://www.inkscape.org/) -->

<svg
   xmlns:dc="http://purl.org/dc/elements/1.1/"
   xmlns:cc="http://creativecommons.org/ns#"
   xmlns:rdf="http://www.w3.org/1999/02/22-rdf-syntax-ns#"
   xmlns:svg="http://www.w3.org/2000/svg"
   xmlns="http://www.w3.org/2000/svg"
   xmlns:sodipodi="http://sodipodi.sourceforge.net/DTD/sodipodi-0.dtd"
   xmlns:inkscape="http://www.inkscape.org/namespaces/inkscape"
   id="svg2"
   version="1.1"
   inkscape:version="0.48.3.1 r9886"
   width="178.06625"
   height="178.07001"
   xml:space="preserve"
   sodipodi:docname="goal image 5x13.svg"
   inkscape:export-filename="/home/piel/Documents/notes/calibration/sparc mirror/goal image 5x13.png"
   inkscape:export-xdpi="482.48978"
   inkscape:export-ydpi="482.48978"><metadata
     id="metadata8"><rdf:RDF><cc:Work
         rdf:about=""><dc:format>image/svg+xml</dc:format><dc:type
           rdf:resource="http://purl.org/dc/dcmitype/StillImage" /><dc:title></dc:title></cc:Work></rdf:RDF></metadata><defs
     id="defs6" /><sodipodi:namedview
     pagecolor="#ffffff"
     bordercolor="#666666"
     borderopacity="1"
     objecttolerance="10"
     gridtolerance="10"
     guidetolerance="10"
     inkscape:pageopacity="0"
     inkscape:pageshadow="2"
     inkscape:window-width="1920"
     inkscape:window-height="1176"
     id="namedview4"
     showgrid="false"
     fit-margin-top="0"
     fit-margin-left="0"
     fit-margin-right="0"
     fit-margin-bottom="0"
     inkscape:zoom="5.0743638"
     inkscape:cx="61.454254"
     inkscape:cy="32.749666"
     inkscape:window-x="0"
     inkscape:window-y="24"
     inkscape:window-maximized="1"
     inkscape:current-layer="g10" /><g
     id="g10"
     inkscape:groupmode="layer"
     inkscape:label="NANOC-06-02-04A-CL_systeem_Spiegel_11-5x13-25_2010"
     transform="matrix(1.25,0,0,-1.25,-921.4225,884.08125)"><g
       id="g3294"
       transform="translate(0,17.6)"
       style="stroke:#2fa7d4;stroke-opacity:1"><path
         inkscape:connector-curvature="0"
         id="path3099"
         d="m 873.5,565.169 5.731,0"
         style="fill:none;stroke:#2fa7d4;stroke-width:0.72000003000000001;stroke-linecap:round;stroke-linejoin:round;stroke-miterlimit:10;stroke-opacity:1;stroke-dasharray:none" /><path
         inkscape:connector-curvature="0"
         id="path3097"
         d="m 873.5,565.169 -5.967,0 -6.515,0 -7.215,0 -4.009,0 -4.3,0 -4.648,0 -5.049,0 -5.206,0 -5.709,0 -5.186,0 -5.52,0 -2.827,0 -2.856,0 -4.844,0 -4.72,0 -4.087,0 -3.886,0 -3.658,0 -6.072,0 -5.499,0 -5.006,0 -6.515,0 -5.912,0 -5.404,0 -4.99,0 -4.671,0"
         style="fill:none;stroke:#2fa7d4;stroke-width:0.72000003000000001;stroke-linecap:round;stroke-linejoin:round;stroke-miterlimit:10;stroke-opacity:1;stroke-dasharray:none" /><path
         inkscape:connector-curvature="0"
         id="path3095"
         d="m 737.498,565.169 5.731,0"
         style="fill:none;stroke:#2fa7d4;stroke-width:0.72000003000000001;stroke-linecap:round;stroke-linejoin:round;stroke-miterlimit:10;stroke-opacity:1;stroke-dasharray:none" /><path
         inkscape:connector-curvature="0"
         id="path3093"
         d="m 810.065,590.659 -0.185,-0.772 -0.366,-0.483 -0.413,-0.28 -0.413,-0.137 -0.456,-0.026 -0.394,0.079 -0.358,0.165 -0.42,0.361 -0.325,0.606 -0.062,0.664 0.28,0.772 0.383,0.406 0.417,0.233 0.41,0.102 0.437,-0.005 0.381,-0.099 0.425,-0.241 0.401,-0.444 0.246,-0.696 0.012,-0.205"
         style="fill:none;stroke:#2fa7d4;stroke-width:0.72000003000000001;stroke-linecap:round;stroke-linejoin:round;stroke-miterlimit:10;stroke-opacity:1;stroke-dasharray:none" /><path
         inkscape:connector-curvature="0"
         id="path3087"
         d="m 873.5,565.169 c -1.564,35.941 -32.03,63.865 -67.97,62.301 -33.602,-1.462 -60.838,-28.699 -62.301,-62.301"
         style="fill:none;stroke:#2fa7d4;stroke-width:0.72000003000000001;stroke-linecap:round;stroke-linejoin:round;stroke-miterlimit:10;stroke-opacity:1;stroke-dasharray:none" /></g></g></svg>